<svg xmlns="http://www.w3.org/2000/svg" width="1955" height="1474" viewBox="0 0 1955 1474" fill="none">
<path fill-rule="evenodd" clip-rule="evenodd" d="M494.047 0H489.904L486.976 2.92893L7.09558 482.809L0 489.904L7.12009 496.975L973.545 1456.74L990.868 1473.94L990.591 1449.53L983.926 863.006L983.813 853.12H973.927H891.429L1353.76 390.785L1693.27 736.823L1700.34 744.03L1707.48 736.891L1947.42 496.951L1954.49 489.88L1947.42 482.809L1467.54 2.92893L1464.61 0H1460.47H494.047ZM28.3333 489.855L498.189 20H1456.33L1926.21 489.88L1700.48 715.61L1360.97 369.572L1353.9 362.365L1346.76 369.504L860.215 856.049L843.144 873.12H867.286H964.039L970.315 1425.34L28.3333 489.855ZM1347.17 726.87L1465.51 845.216L1347.17 963.562L1228.82 845.216L1347.17 726.87ZM1347.17 698.586L1361.31 712.728L1479.65 831.074L1493.8 845.216L1479.65 859.358L1361.31 977.704L1347.17 991.846L1333.02 977.704L1214.68 859.358L1200.54 845.216L1214.68 831.074L1333.02 712.728L1347.17 698.586Z" fill="#AE101E"/>
</svg>