<svg width="154" height="67" viewBox="0 0 154 67" fill="none" xmlns="http://www.w3.org/2000/svg">
<path d="M154 63.5103H100.125V64.2577H154V63.5103Z" fill="#FFBD5A"/>
<path d="M54.0896 63.5103H0V64.2577H54.0896V63.5103Z" fill="#FFBD5A"/>
<path d="M145.702 41.3526V46.2282H148.811C149.618 46.2282 150.156 46.1235 150.428 45.9118C150.792 45.6328 150.991 45.142 151.033 44.4369H151.417V48.732H151.033C150.936 48.1316 150.836 47.7479 150.742 47.576C150.617 47.3642 150.41 47.1973 150.126 47.0752C149.842 46.9532 149.404 46.8909 148.813 46.8909H145.704V50.9592C145.704 51.5049 145.732 51.8387 145.786 51.9558C145.844 52.0729 145.938 52.1676 146.078 52.2373C146.217 52.3046 146.484 52.3395 146.873 52.3395H149.272C150.069 52.3395 150.652 52.2921 151.013 52.1925C151.377 52.0953 151.721 51.906 152.057 51.6219C152.488 51.2458 152.929 50.6777 153.383 49.9204H153.799L152.58 53.0121H141.678V52.6758H142.179C142.51 52.6758 142.827 52.6035 143.126 52.464C143.35 52.3669 143.499 52.2224 143.582 52.0305C143.659 51.8337 143.699 51.4376 143.699 50.8372V42.8225C143.699 42.0402 143.609 41.5594 143.427 41.375C143.178 41.1334 142.762 41.0113 142.176 41.0113H141.676V40.6725H152.578L152.735 43.3731H152.326C152.179 42.7254 152.02 42.2794 151.843 42.0377C151.664 41.7961 151.404 41.6092 151.056 41.4822C150.779 41.3925 150.286 41.3451 149.586 41.3451H145.702V41.3526ZM125.559 46.6741C125.694 46.6741 125.808 46.6741 125.906 46.6766C126.003 46.6791 126.082 46.6816 126.145 46.6816C127.495 46.6816 128.511 46.4275 129.197 45.9168C129.884 45.4085 130.226 44.7583 130.226 43.971C130.226 43.2012 129.949 42.5734 129.396 42.0926C128.845 41.6117 128.11 41.3701 127.199 41.3701C126.795 41.3701 126.252 41.4299 125.562 41.5445V46.6741H125.559ZM135.607 53.0146H131.83L127.042 47.2496C126.69 47.2596 126.401 47.2646 126.177 47.2646C126.087 47.2646 125.993 47.2646 125.886 47.2621C125.783 47.2596 125.676 47.2571 125.562 47.2496V50.8322C125.562 51.6095 125.661 52.0903 125.853 52.2797C126.12 52.5462 126.516 52.6808 127.042 52.6808H127.597V53.0171H121.538V52.6808H122.069C122.667 52.6808 123.095 52.5089 123.352 52.1725C123.499 51.9832 123.574 51.5347 123.574 50.8347V42.8649C123.574 42.0876 123.474 41.6067 123.282 41.4224C123.013 41.1558 122.607 41.0213 122.071 41.0213H121.541V40.6825H126.693C128.195 40.6825 129.304 40.7796 130.014 40.9714C130.726 41.1608 131.332 41.5121 131.83 42.0228C132.326 42.5385 132.575 43.1464 132.575 43.8589C132.575 44.6163 132.293 45.274 131.723 45.8346C131.157 46.3901 130.28 46.7838 129.092 47.0154L132.012 50.5557C132.677 51.3703 133.255 51.9085 133.731 52.1775C134.212 52.4416 134.837 52.611 135.609 52.6858V53.0146H135.607ZM114.829 52.6783V53.0146H108.765V52.6783H109.266C109.849 52.6783 110.272 52.5288 110.536 52.2298C110.703 52.038 110.788 51.5696 110.788 50.8297V42.8599C110.788 42.2371 110.741 41.8235 110.653 41.6242C110.581 41.4722 110.439 41.3427 110.227 41.233C109.921 41.0861 109.6 41.0163 109.266 41.0163H108.765V40.6775H114.829V41.0163H114.316C113.738 41.0163 113.319 41.1658 113.055 41.4597C112.881 41.6566 112.791 42.1224 112.791 42.8599V50.8297C112.791 51.4525 112.838 51.8661 112.926 52.0654C112.998 52.2174 113.142 52.3469 113.364 52.4565C113.663 52.6035 113.979 52.6783 114.316 52.6783H114.829ZM96.4728 48.2113L94.0736 43.2286L91.6146 48.2113H96.4728ZM96.7642 48.8865H91.2883L90.3316 50.8322C90.0924 51.3105 89.9753 51.6668 89.9753 51.906C89.9753 52.0928 90.0775 52.2572 90.2818 52.3992C90.4885 52.5413 90.9295 52.6359 91.6146 52.6783V53.0146H87.1601V52.6783C87.7506 52.5861 88.1317 52.4665 88.3061 52.322C88.6624 52.033 89.0535 51.4401 89.4845 50.5482L94.4622 40.3984H94.826L99.7489 50.6578C100.145 51.4824 100.504 52.0181 100.828 52.2622C101.152 52.5064 101.605 52.6459 102.18 52.6783V53.0146H96.5973V52.6783C97.1604 52.6534 97.5415 52.5687 97.7409 52.4291C97.9402 52.2921 98.0398 52.1227 98.0398 51.9209C98.0398 51.6543 97.8978 51.2358 97.6188 50.6578L96.7642 48.8865ZM82.1949 40.68L82.3518 43.5724H81.9532C81.8785 43.0642 81.7763 42.7004 81.6393 42.4787C81.425 42.1274 81.1385 41.8708 80.7823 41.7014C80.4235 41.5345 79.9526 41.4498 79.3697 41.4498H77.3766V50.877C77.3766 51.6344 77.4738 52.1053 77.6581 52.2971C77.9222 52.5512 78.3308 52.6783 78.8789 52.6783H79.3697V53.0146H73.3705V52.6783H73.8713C74.4692 52.6783 74.8927 52.5188 75.1419 52.2024C75.2938 52.0106 75.3736 51.5671 75.3736 50.877V41.4498H73.672C73.0143 41.4498 72.5434 41.4921 72.2669 41.5768C71.9031 41.6914 71.5942 41.9157 71.3376 42.242C71.081 42.5709 70.929 43.0119 70.8792 43.5699H70.483L70.65 40.6775H82.1949V40.68ZM63.4948 52.6783V53.0146H57.4309V52.6783H57.9316C58.5146 52.6783 58.9382 52.5288 59.2022 52.2298C59.3692 52.038 59.4539 51.5696 59.4539 50.8297V42.8599C59.4539 42.2371 59.409 41.8235 59.3193 41.6242C59.2496 41.4722 59.1051 41.3427 58.8933 41.233C58.5869 41.0861 58.2655 41.0163 57.9316 41.0163H57.4309V40.6775H63.4948V41.0163H62.9816C62.4036 41.0163 61.9851 41.1658 61.721 41.4597C61.5466 41.6566 61.4569 42.1224 61.4569 42.8599V50.8297C61.4569 51.4525 61.5042 51.8661 61.5914 52.0654C61.6637 52.2174 61.8082 52.3469 62.0299 52.4565C62.3289 52.6035 62.6453 52.6783 62.9816 52.6783H63.4948ZM50.2757 49.6015L50.622 49.6662L49.4112 53.0121H38.4593V52.6758H38.9924C39.5904 52.6758 40.0164 52.5039 40.273 52.1676C40.42 51.9707 40.4897 51.5223 40.4897 50.8197V42.8599C40.4897 42.0901 40.3926 41.6092 40.1983 41.4174C39.9267 41.1508 39.5256 41.0163 38.9924 41.0163H38.4593V40.6775H44.8645V41.0163C44.1147 41.0088 43.5865 41.0686 43.285 41.1957C42.9811 41.3227 42.7768 41.4847 42.6647 41.679C42.5551 41.8708 42.4978 42.3367 42.4978 43.0692V50.8197C42.4978 51.323 42.5551 51.6668 42.6647 51.8561C42.7469 51.9832 42.874 52.0779 43.0484 52.1377C43.2227 52.1974 43.7634 52.2273 44.6752 52.2273H45.7066C46.7928 52.2273 47.5552 52.1601 47.9912 52.0206C48.4297 51.881 48.8283 51.6319 49.192 51.2781C49.5533 50.9294 49.917 50.3663 50.2757 49.6015ZM24.4031 41.0611C23.135 41.0611 22.1211 41.4697 21.3562 42.2894C20.4045 43.3083 19.9287 44.7982 19.9287 46.7638C19.9287 48.7793 20.4244 50.3289 21.4085 51.4127C22.1659 52.2373 23.1674 52.6509 24.4131 52.6509C25.741 52.6509 26.8372 52.1974 27.7017 51.2931C28.5662 50.3887 29.0021 48.9637 29.0021 47.0179C29.0021 44.9103 28.5263 43.3357 27.5721 42.2993C26.8073 41.4747 25.7534 41.0611 24.4031 41.0611ZM24.5999 40.4009C26.4361 40.4009 28.028 41.0063 29.3734 42.2246C30.7187 43.4429 31.3913 44.9576 31.3913 46.7763C31.3913 48.6523 30.7112 50.2069 29.3559 51.4426C28.0006 52.6808 26.3588 53.2986 24.433 53.2986C22.4898 53.2986 20.8505 52.6932 19.5276 51.4899C18.2022 50.2816 17.542 48.7195 17.542 46.8037C17.542 44.8455 18.3068 43.2485 19.834 42.0103C21.1644 40.9341 22.7514 40.4009 24.5999 40.4009ZM8.88204 40.4009V44.6661H8.49838C8.37132 43.8465 8.1471 43.1937 7.82571 42.7104C7.50184 42.2221 7.03845 41.8384 6.44053 41.5544C5.8426 41.2679 5.22724 41.1259 4.58697 41.1259C3.86448 41.1259 3.26655 41.3177 2.7932 41.7039C2.31984 42.0901 2.08566 42.526 2.08566 43.0168C2.08566 43.393 2.23514 43.7368 2.5341 44.0458C2.9651 44.5017 3.98904 45.1071 5.61091 45.8644C6.93132 46.4823 7.83568 46.9581 8.31651 47.2895C8.79983 47.6184 9.17353 48.0095 9.43512 48.4579C9.69422 48.9089 9.82626 49.3772 9.82626 49.868C9.82626 50.8023 9.41021 51.607 8.58059 52.2846C7.74848 52.9623 6.6797 53.3011 5.37174 53.3011C4.95818 53.3011 4.57451 53.2737 4.21077 53.2164C3.99652 53.189 3.54807 53.0769 2.87292 52.8876C2.19527 52.6957 1.76676 52.5986 1.58489 52.5986C1.4105 52.5986 1.27597 52.6459 1.17133 52.7356C1.07168 52.8253 0.996937 53.0146 0.94711 53.3011H0.558461V49.0733H0.942128C1.124 49.9577 1.37064 50.6204 1.67458 51.0614C1.98102 51.4999 2.4469 51.8661 3.07721 52.1576C3.70254 52.4466 4.39513 52.5936 5.14503 52.5936C6.01451 52.5936 6.69963 52.3943 7.20537 51.9932C7.70862 51.592 7.96025 51.1212 7.96025 50.5731C7.96025 50.2691 7.86308 49.9652 7.67623 49.6538C7.4844 49.3424 7.18544 49.0584 6.78184 48.7918C6.51028 48.6099 5.77035 48.2238 4.55956 47.6308C3.34877 47.0404 2.49174 46.5695 1.97853 46.2182C1.46531 45.8644 1.08164 45.4758 0.815069 45.0548C0.550987 44.6287 0.418945 44.1604 0.418945 43.6521C0.418945 42.7677 0.807595 42.0054 1.58739 41.3676C2.36718 40.7273 3.35624 40.4084 4.55956 40.4084C5.31195 40.4084 6.10918 40.5678 6.94876 40.8892C7.33741 41.0412 7.61395 41.1159 7.77091 41.1159C7.95277 41.1159 8.10225 41.0686 8.21686 40.9764C8.33146 40.8793 8.42364 40.6899 8.49339 40.4084H8.88204V40.4009Z" fill="#9D0A17"/>
<path d="M71.5821 6.52435L66.0576 12.0488L71.5821 17.5733L77.1066 12.0488L71.5821 6.52435Z" fill="#ED6664" stroke="white" stroke-width="0.305556"/>
<path d="M66.0586 1.00239L60.5342 6.52686L66.0587 12.0513L71.5831 6.52686L66.0586 1.00239Z" fill="#233C75" stroke="white" stroke-width="0.305556"/>
<path d="M66.0584 12.0517L60.5339 17.5762L66.0584 23.1006L71.5829 17.5762L66.0584 12.0517Z" fill="#9D0A17" stroke="white" stroke-width="0.305556"/>
<path d="M60.5323 6.5268L55.0078 12.0513L60.5323 17.5757L66.0568 12.0513L60.5323 6.5268Z" fill="#279DA9" stroke="white" stroke-width="0.305556"/>
<path d="M77.1082 1.00288L71.5837 6.52734L77.1082 12.0518L82.6327 6.52735L77.1082 1.00288Z" fill="#FFBD5A" stroke="white" stroke-width="0.305556"/>
<path fill-rule="evenodd" clip-rule="evenodd" d="M66.0586 1L71.5844 6.5258L77.1077 1H66.0586Z" fill="#9D0A17" stroke="white" stroke-width="0.305556"/>
<path fill-rule="evenodd" clip-rule="evenodd" d="M82.6332 6.5258L88.1565 1H77.1074L82.6332 6.5258Z" fill="#ED6664" stroke="white" stroke-width="0.305556"/>
<path d="M71.5831 17.5751L66.0586 23.0996L71.5831 28.6241L77.1075 23.0996L71.5831 17.5751Z" fill="#279DA9" stroke="white" stroke-width="0.305556"/>
<path fill-rule="evenodd" clip-rule="evenodd" d="M77.1073 34.1497L71.584 28.6239L77.1073 23.0981V34.1497Z" fill="#233C75" stroke="white" stroke-width="0.305556"/>
<path d="M82.6316 6.52631L77.1072 12.0508L80.0667 15.0103L85.5912 9.48585L82.6316 6.52631Z" fill="#279DA9" stroke="white" stroke-width="0.305556"/>
<path d="M77.1006 12.0517L71.5762 17.5762L74.5357 20.5357L80.0602 15.0112L77.1006 12.0517Z" fill="#233C75" stroke="white" stroke-width="0.305556"/>
<path d="M88.1563 1.00288L82.6318 6.52734L88.1563 12.0518L93.6808 6.52735L88.1563 1.00288Z" fill="#233C75" stroke="white" stroke-width="0.305556"/>
<path d="M93.6807 6.52485L88.1562 12.0493L93.6807 17.5738L99.2052 12.0493L93.6807 6.52485Z" fill="#9D0A17" stroke="white" stroke-width="0.305556"/>
<path fill-rule="evenodd" clip-rule="evenodd" d="M77.1074 23.0758V20.5347H74.5637L77.1074 23.0758Z" fill="#193952" stroke="white" stroke-width="0.305556"/>
<path d="M85.5228 16.8031L83.8845 18.4414L85.5228 20.0797L87.1612 18.4414L85.5228 16.8031Z" fill="#367C89" stroke="white" stroke-width="0.305556"/>
<path d="M85.5289 20.0792L83.8906 21.7178L85.5292 23.3561L87.1675 21.7175L85.5289 20.0792Z" fill="#193952" stroke="white" stroke-width="0.305556"/>
<path d="M87.1686 18.4396L85.5303 20.0781L87.1688 21.7164L88.8071 20.0779L87.1686 18.4396Z" fill="#FFBD5A" stroke="white" stroke-width="0.305556"/>
<path d="M83.8854 18.4437L82.2471 20.082L83.8854 21.7203L85.5237 20.082L83.8854 18.4437Z" fill="#9D0A17" stroke="white" stroke-width="0.305556"/>
<path d="M63.1801 63.8267H65.963V64.0559C65.6565 64.0559 65.4473 64.0858 65.3377 64.1481C65.228 64.2104 65.1558 64.3125 65.1209 64.457C65.086 64.6015 65.0686 64.9503 65.0686 65.5059V66.191C64.9914 66.1785 64.9241 66.1711 64.8643 66.1711C64.6201 66.1711 64.2988 66.2458 63.9026 66.3953C63.3645 66.5971 62.8637 66.6992 62.4053 66.6992C61.4835 66.6992 60.7162 66.3953 60.1033 65.7874C59.4905 65.1795 59.1865 64.4097 59.1865 63.4779C59.1865 62.5561 59.478 61.7464 60.061 61.0538C60.644 60.3588 61.4362 60.0125 62.4377 60.0125C63.2997 60.0125 64.0123 60.3289 64.5778 60.9641C64.6824 60.7424 64.7497 60.5032 64.7771 60.2466H65.0063V62.4017H64.7771C64.6849 61.739 64.4333 61.2158 64.0247 60.8271C63.6136 60.441 63.1154 60.2466 62.5299 60.2466C61.9245 60.2466 61.3963 60.4709 60.9454 60.9218C60.4945 61.3727 60.2703 62.17 60.2703 63.3185C60.2703 64.462 60.487 65.2742 60.9205 65.75C61.354 66.2259 61.8946 66.465 62.5374 66.465C62.8662 66.465 63.1677 66.3978 63.4368 66.2632C63.7058 66.1287 63.8902 65.9643 63.9873 65.7724C64.0845 65.5781 64.1343 65.334 64.1343 65.04C64.1343 64.6937 64.1119 64.4645 64.0646 64.3474C64.0197 64.2328 63.9475 64.1531 63.8528 64.1157C63.7581 64.0783 63.5837 64.0559 63.3296 64.0559H63.1777V63.8267H63.1801Z" fill="black" stroke="black" stroke-width="0.0622836" stroke-miterlimit="10"/>
<path d="M73.6837 66.5798H71.9472C71.6408 66.363 71.1699 65.8 70.5346 64.8881C70.3328 64.5967 70.121 64.3176 69.9018 64.0486C69.6826 63.7795 69.5331 63.6176 69.4509 63.5578C69.3686 63.498 69.2391 63.4706 69.0647 63.4706H68.8081V64.9031C68.8081 65.4113 68.8206 65.7427 68.843 65.8996C68.8679 66.0566 68.9302 66.1737 69.0323 66.2484C69.1345 66.3232 69.3338 66.363 69.6253 66.363H69.9342V66.5823H66.8474V66.363H67.0567C67.3332 66.363 67.5226 66.3281 67.6297 66.2584C67.7368 66.1886 67.8041 66.079 67.8315 65.932C67.8589 65.785 67.8738 65.4412 67.8738 64.9031V61.7391C67.8738 61.2259 67.8589 60.8945 67.8315 60.745C67.8041 60.5956 67.7393 60.4934 67.6422 60.4361C67.545 60.3788 67.3307 60.3514 67.0044 60.3514H66.8947V60.1322L67.8165 60.0848C68.4319 60.0574 68.9202 60.0425 69.2815 60.0425C69.8968 60.0425 70.3976 60.0998 70.7812 60.2144C71.1674 60.329 71.4788 60.5158 71.7155 60.7749C71.9522 61.034 72.0718 61.3455 72.0718 61.7067C72.0718 62.1277 71.9173 62.489 71.6059 62.7854C71.2945 63.0844 70.8385 63.2688 70.2356 63.341C70.5047 63.4706 70.9382 63.9389 71.5386 64.7486C72.0269 65.4039 72.4106 65.8349 72.6896 66.0367C72.9686 66.2385 73.2975 66.3481 73.6787 66.3605V66.5798H73.6837ZM68.8106 63.2513C69.0473 63.2439 69.2939 63.2364 69.548 63.2239C69.8021 63.2115 70.0214 63.1766 70.2082 63.1193C70.3951 63.062 70.5471 62.9798 70.6617 62.8702C70.7763 62.7605 70.8684 62.6185 70.9357 62.4392C71.003 62.2623 71.0354 62.043 71.0354 61.7839C71.0354 61.3305 70.9208 60.9668 70.6965 60.6952C70.4698 60.4237 69.9765 60.2866 69.2142 60.2866C69.0971 60.2866 68.9626 60.2941 68.8106 60.3066V63.2513Z" fill="black" stroke="black" stroke-width="0.0622836" stroke-miterlimit="10"/>
<path d="M73.8037 63.3135C73.8037 62.3169 74.1376 61.5197 74.8027 60.9168C75.4679 60.3139 76.3 60.0125 77.2941 60.0125C78.2981 60.0125 79.1377 60.3114 79.8128 60.9068C80.4855 61.5023 80.8243 62.3169 80.8243 63.3459C80.8243 64.3449 80.5029 65.1521 79.8577 65.77C79.2124 66.3878 78.3629 66.6967 77.3115 66.6967C76.2876 66.6967 75.448 66.3878 74.7903 65.77C74.1301 65.1546 73.8037 64.3349 73.8037 63.3135ZM74.8924 63.3459C74.8924 64.3823 75.0992 65.1621 75.5128 65.6803C75.9263 66.201 76.5467 66.4601 77.3738 66.4601C78.0988 66.4601 78.6743 66.201 79.0953 65.6803C79.5164 65.1596 79.7281 64.3848 79.7281 63.3558C79.7281 62.3543 79.5213 61.587 79.1053 61.0513C78.6892 60.5182 78.0888 60.2491 77.2991 60.2491C76.5218 60.2491 75.9263 60.5107 75.5128 61.0314C75.0992 61.5546 74.8924 62.3269 74.8924 63.3459Z" fill="black" stroke="black" stroke-width="0.0622836" stroke-miterlimit="10"/>
<path d="M86.8707 60.1323H89.0257V60.3516C88.7392 60.3715 88.5274 60.4338 88.3854 60.5434C88.2434 60.653 88.1587 60.7751 88.1263 60.9121C88.0939 61.0491 88.079 61.3132 88.079 61.7069V63.8519C88.079 64.4 88.059 64.8086 88.0142 65.0752C87.9718 65.3417 87.8473 65.6033 87.643 65.8599C87.4387 66.1165 87.1497 66.3208 86.781 66.4728C86.4098 66.6248 85.9813 66.702 85.4979 66.702C84.9249 66.702 84.4391 66.6048 84.0405 66.4105C83.6419 66.2162 83.3579 65.9646 83.1885 65.6531C83.019 65.3442 82.9343 64.9307 82.9343 64.41L82.9393 63.7498V61.7442C82.9393 61.231 82.9244 60.8997 82.8945 60.7502C82.8646 60.6007 82.7998 60.4985 82.7051 60.4412C82.608 60.3839 82.3962 60.3565 82.0698 60.3565H81.9229V60.1373H84.8651V60.3565H84.7356C84.4192 60.3565 84.2099 60.3815 84.1127 60.4338C84.0156 60.4861 83.9483 60.5833 83.9159 60.7253C83.8835 60.8673 83.8661 61.2061 83.8661 61.7417V63.7722C83.8661 64.4747 83.8985 64.9755 83.9633 65.2695C84.028 65.5635 84.2124 65.8226 84.5139 66.0418C84.8153 66.261 85.2164 66.3731 85.7172 66.3731C86.1108 66.3731 86.4671 66.2984 86.7884 66.1514C87.1098 66.0044 87.349 65.8201 87.506 65.6008C87.6629 65.3816 87.7576 65.1549 87.795 64.9207C87.8298 64.689 87.8473 64.3203 87.8473 63.8195V61.6221C87.8473 61.2584 87.8273 61.0018 87.785 60.8573C87.7426 60.7128 87.6554 60.5957 87.5184 60.511C87.3814 60.4263 87.1671 60.374 86.8707 60.3541V60.1323Z" fill="black" stroke="black" stroke-width="0.0622836" stroke-miterlimit="10"/>
<path d="M91.8808 63.5452V64.9005C91.8808 65.4088 91.8932 65.7401 91.9157 65.8971C91.9381 66.054 92.0029 66.1711 92.1075 66.2459C92.2121 66.3206 92.409 66.3605 92.6979 66.3605H92.9122V66.5797H89.96V66.3605H90.1319C90.4084 66.3605 90.5977 66.3256 90.7049 66.2558C90.812 66.1861 90.8793 66.0765 90.9067 65.9295C90.9341 65.7825 90.949 65.4387 90.949 64.9005V61.739C90.949 61.2258 90.9341 60.8945 90.9067 60.745C90.8768 60.5955 90.8145 60.4934 90.7173 60.4361C90.6202 60.3788 90.4059 60.3513 90.0795 60.3513H89.96V60.1321L90.7696 60.1022C91.4174 60.0798 91.9207 60.0698 92.2819 60.0698C92.9471 60.0698 93.4603 60.1221 93.8191 60.2268C94.1778 60.3314 94.4743 60.5158 94.7035 60.7823C94.9327 61.0489 95.0473 61.3853 95.0473 61.7913C95.0473 62.1426 94.9701 62.454 94.8131 62.7231C94.6561 62.9922 94.4319 63.1965 94.1379 63.336C93.844 63.4755 93.3283 63.5452 92.5908 63.5452H91.8808ZM91.8808 63.3086H92.3417C92.7129 63.3086 93.0119 63.2712 93.2411 63.1965C93.4703 63.1217 93.6596 62.9648 93.8116 62.7281C93.9635 62.4889 94.0408 62.1974 94.0408 61.8486C94.0408 61.3155 93.9112 60.9244 93.6496 60.6752C93.3881 60.4261 92.9645 60.3015 92.3766 60.3015C92.1598 60.3015 91.9954 60.309 91.8808 60.3214V63.3086Z" fill="black" stroke="black" stroke-width="0.0622836" stroke-miterlimit="10"/>
</svg>
