<svg width="98" height="98" viewBox="0 0 98 98" fill="none" xmlns="http://www.w3.org/2000/svg">
<g id="Group">
<g id="g820_1_">
<path id="path822_1_" d="M30.2473 29.0146L21.627 14.6933L48.9892 1.91357L76.3457 14.6933L67.7269 29.0146" stroke="black" stroke-width="2.87057" stroke-miterlimit="13.3333" stroke-linecap="round" stroke-linejoin="round"/>
</g>
<g id="g824_1_">
<path id="path826_1_" d="M48.9939 58.0093C59.3007 58.0093 67.7301 49.5741 67.7301 39.2673V29.0151H48.9939H30.252V39.2673C30.252 49.5741 38.6871 58.0093 48.9939 58.0093Z" stroke="black" stroke-width="2.87057" stroke-miterlimit="13.3333" stroke-linecap="round" stroke-linejoin="round"/>
</g>
<g id="g828_1_">
<path id="path830_1_" d="M40.4679 55.9491V63.7556L24.1788 69.2771C16.4211 71.9022 14.7404 75.7546 14.7404 83.4405L14.7246 96.0696H83.2537L83.2379 83.4405C83.2379 75.7546 81.5557 71.9022 73.7995 69.2771L57.509 63.7556V55.9491" stroke="black" stroke-width="2.87057" stroke-miterlimit="13.3333" stroke-linecap="round" stroke-linejoin="round"/>
</g>
<g id="g832_1_">
<path id="path834_1_" d="M51.8086 80.8584L56.3384 96.0695" stroke="black" stroke-width="2.87057" stroke-miterlimit="13.3333" stroke-linecap="round" stroke-linejoin="round"/>
</g>
<g id="g836_1_">
<path id="path838_1_" d="M55.7185 75.0591L51.8074 80.8576H46.1768L42.2656 75.0591" stroke="black" stroke-width="2.87057" stroke-miterlimit="13.3333" stroke-linecap="round" stroke-linejoin="round"/>
</g>
<g id="g840_1_">
<path id="path842_1_" d="M40.4719 63.7545L48.9932 70.0956L36.6354 79.214L32.3281 66.5146" stroke="black" stroke-width="2.87057" stroke-miterlimit="13.3333" stroke-linecap="round" stroke-linejoin="round"/>
</g>
<g id="g844_1_">
<path id="path846_1_" d="M30.2813 29.0151H27.3246C24.7426 29.0151 22.627 31.1307 22.627 33.7128C22.627 36.3006 24.7426 38.4162 27.3246 38.4162H30.2813" stroke="black" stroke-width="2.87057" stroke-miterlimit="13.3333" stroke-linecap="round" stroke-linejoin="round"/>
</g>
<g id="g848_1_">
<path id="path850_1_" d="M57.5092 63.7549L48.9922 70.096L61.3442 79.2143L65.6573 66.5149" stroke="black" stroke-width="2.87057" stroke-miterlimit="13.3333" stroke-linecap="round" stroke-linejoin="round"/>
</g>
<g id="g852_1_">
<path id="path854_1_" d="M46.18 80.8584L41.6445 96.0695" stroke="black" stroke-width="2.87057" stroke-miterlimit="13.3333" stroke-linecap="round" stroke-linejoin="round"/>
</g>
<g id="g856_1_">
<path id="path858_1_" d="M67.7043 29.0151C67.7043 32.655 65.5887 38.4162 56.9684 38.4162H41.0152C32.3963 38.4162 30.2793 32.655 30.2793 29.0151" stroke="black" stroke-width="2.87057" stroke-miterlimit="13.3333" stroke-linecap="round" stroke-linejoin="round"/>
</g>
<g id="g864_1_">
<path id="path866_1_" d="M26.7591 76.8867L23.4062 78.6665" stroke="black" stroke-width="2.87057" stroke-miterlimit="13.3333" stroke-linecap="round" stroke-linejoin="round"/>
</g>
<g id="g868_1_">
<path id="path870_1_" d="M71.2227 76.8867L74.5755 78.6665" stroke="black" stroke-width="2.87057" stroke-miterlimit="13.3333" stroke-linecap="round" stroke-linejoin="round"/>
</g>
<g id="g872_1_">
<path id="path874_1_" d="M67.7012 29.0151H70.6579C73.2399 29.0151 75.3555 31.1307 75.3555 33.7128C75.3555 36.3006 73.2399 38.4162 70.6579 38.4162H67.7012" stroke="black" stroke-width="2.87057" stroke-miterlimit="13.3333" stroke-linecap="round" stroke-linejoin="round"/>
</g>
<path id="Vector" d="M37.875 21.0168H60.4994" stroke="black" stroke-width="2.87057" stroke-miterlimit="13.3333" stroke-linecap="round" stroke-linejoin="round"/>
</g>
</svg>
