<svg width="88" height="85" viewBox="0 0 88 85" fill="none" xmlns="http://www.w3.org/2000/svg">
<g id="Group">
<path id="Vector" d="M20.2425 27.151C14.8938 27.151 10.541 31.5037 10.541 36.8524C10.541 42.2011 14.8938 46.5539 20.2425 46.5539C25.5911 46.5539 29.9439 42.2011 29.9439 36.8524C29.9439 31.5037 25.5929 27.151 20.2425 27.151ZM20.2425 43.1197C16.786 43.1197 13.9752 40.3089 13.9752 36.8524C13.9752 33.396 16.786 30.5851 20.2425 30.5851C23.6989 30.5851 26.5098 33.396 26.5098 36.8524C26.5098 40.3089 23.6989 43.1197 20.2425 43.1197Z" fill="black"/>
<path id="Vector_2" d="M86.197 80.5727H79.3424V63.5754C79.3424 62.6276 78.5732 61.8584 77.6254 61.8584C76.6775 61.8584 75.9083 62.6276 75.9083 63.5754V69.8874H64.2906L55.5026 51.8221C54.4243 49.2001 51.8041 47.4418 48.964 47.4418H40.4885V16.1705C40.4885 15.6417 40.2447 15.142 39.8275 14.8175L21.3003 0.363161C20.6804 -0.121054 19.8081 -0.121054 19.1883 0.363161L0.661073 14.8175C0.243824 15.142 0 15.6417 0 16.1705V82.2898C0 83.2376 0.769248 84.0069 1.71707 84.0069H86.197C87.1448 84.0069 87.9141 83.2376 87.9141 82.2898C87.9141 81.342 87.1448 80.5727 86.197 80.5727ZM3.43414 23.4234H37.0544V50.2819H3.43414V23.4234ZM40.4885 61.5613H44.3588L54.8175 80.5727H40.4885V61.5613ZM3.43414 17.0085L20.2443 3.89346L37.0544 17.0085V19.9893H3.43414V17.0085ZM13.977 80.5727V70.8713C13.977 67.4148 16.7878 64.604 20.2443 64.604C23.7007 64.604 26.5116 67.4148 26.5116 70.8713V80.5727H13.977ZM29.9457 80.5727V70.8713C29.9457 65.5226 25.593 61.1698 20.2443 61.1698C14.8956 61.1698 10.5428 65.5226 10.5428 70.8713V80.5727H3.43414V53.716H37.0544V80.5744L29.9457 80.5727ZM58.7376 80.5727L46.8795 59.0166C46.5773 58.4671 46.0021 58.1272 45.3753 58.1272H40.4885V50.876H48.9623C50.4355 50.876 51.792 51.7929 52.3381 53.158C52.3535 53.1957 52.3707 53.2335 52.3879 53.2713L61.6703 72.3548C61.9571 72.9455 62.5581 73.3215 63.214 73.3215H75.9066V80.5727H58.7376Z" fill="black"/>
</g>
</svg>
