<svg width="98" height="72" viewBox="0 0 98 72" fill="none" xmlns="http://www.w3.org/2000/svg">
<g id="XMLID_1_">
<path id="XMLID_6_" d="M2 54.1257C9.81413 54.1257 9.81413 57.9527 17.6283 57.9527C25.4424 57.9527 25.4424 54.1257 33.2565 54.1257C41.0707 54.1257 41.0707 57.9527 48.8848 57.9527C56.6989 57.9527 56.6989 54.1257 64.5131 54.1257C72.3272 54.1257 72.3272 57.9527 80.1413 57.9527C87.9554 57.9527 87.9554 54.1257 95.7696 54.1257" stroke="black" stroke-width="3.43414" stroke-miterlimit="10" stroke-linecap="round" stroke-linejoin="round"/>
<path id="XMLID_5_" d="M2 65.6075C9.81413 65.6075 9.81413 69.4345 17.6283 69.4345C25.4424 69.4345 25.4424 65.6075 33.2565 65.6075C41.0707 65.6075 41.0707 69.4345 48.8848 69.4345C56.6989 69.4345 56.6989 65.6075 64.5131 65.6075C72.3272 65.6075 72.3272 69.4345 80.1413 69.4345C87.9554 69.4345 87.9554 65.6075 95.7696 65.6075" stroke="black" stroke-width="3.43414" stroke-miterlimit="10" stroke-linecap="round" stroke-linejoin="round"/>
<path id="XMLID_4_" d="M2 42.6449C9.81413 42.6449 9.81413 46.4719 17.6283 46.4719C25.4424 46.4719 25.4424 42.6449 33.2565 42.6449C41.0707 42.6449 41.0707 46.4719 48.8848 46.4719C56.6989 46.4719 56.6989 42.6449 64.5131 42.6449C72.3272 42.6449 72.3272 46.4719 80.1413 46.4719C87.9554 46.4719 87.9554 42.6449 95.7696 42.6449" stroke="black" stroke-width="3.43414" stroke-miterlimit="10" stroke-linecap="round" stroke-linejoin="round"/>
<path id="XMLID_3_" d="M74.3938 45.498L61.2775 18.6441L76.7533 11.0854C79.1281 9.92658 80.1115 7.06013 78.9527 4.68539C78.1217 2.98725 76.4217 2 74.6511 2C73.946 2 73.2312 2.15628 72.5566 2.486L53.6425 11.7257C50.7933 13.117 49.6116 16.5552 51.0029 19.4045L56.0135 29.662C55.2111 30.0527 61.0469 27.2034 27.0859 43.7904" stroke="black" stroke-width="3.43414" stroke-miterlimit="10" stroke-linecap="round" stroke-linejoin="round"/>
<path id="XMLID_2_" d="M78.853 38.4388C83.2685 37.0655 85.7347 32.3727 84.3613 27.9572C82.988 23.5417 78.2952 21.0756 73.8797 22.4489C69.4642 23.8222 66.9981 28.515 68.3714 32.9305C69.7448 37.346 74.4375 39.8121 78.853 38.4388Z" stroke="black" stroke-width="3.43421" stroke-miterlimit="10.0002" stroke-linecap="round" stroke-linejoin="round"/>
</g>
</svg>
