<svg xmlns="http://www.w3.org/2000/svg" width="66" height="66" viewBox="0 0 66 66" fill="none">
  <path d="M33.0437 54.0469V63.4054" stroke="#9D0A17" stroke-width="2.5239" stroke-miterlimit="22.9256" stroke-linecap="round" stroke-linejoin="round"/>
  <path d="M48.1869 56.5165H17.9002V64.0882H48.1869V56.5165Z" stroke="#9D0A17" stroke-width="2.5239" stroke-miterlimit="22.9256" stroke-linecap="round" stroke-linejoin="round"/>
  <path d="M12.2558 33.5392L6.3436 23.8626C4.49359 20.9551 1.02702 23.1862 2.25868 25.811C3.12059 27.5992 6.53668 36.1073 9.10222 41.7494C10.9472 45.8091 11.693 46.8489 14.9501 49.8107L19.9019 54.3121V55.8113M53.8319 33.5392L59.7441 23.8626C61.5929 20.9551 65.0607 23.1862 63.829 25.811C62.9671 27.5992 59.551 36.1073 56.9855 41.7494C55.1405 45.8091 54.396 46.8489 51.1376 49.8107L46.1858 54.3121V55.8113M16.3723 43.7862C14.9917 41.5589 13.5884 38.6627 12.4678 35.8296C12.04 34.7494 11.8734 33.5834 12.7884 32.8148C13.7033 32.0463 15.0561 32.1448 15.7956 33.0332C16.5035 33.885 20.6957 39.1549 21.4037 40.0067C25.3106 44.7087 32.2779 46.0325 33.0451 54.0483C33.8124 46.0325 40.7796 44.7087 44.6866 40.0067C45.3945 39.1549 49.5867 33.885 50.2947 33.0332C51.0342 32.1435 52.387 32.0451 53.3019 32.8148C54.2168 33.5846 54.0489 34.7494 53.6224 35.8296C52.5018 38.6627 51.0972 41.5589 49.7179 43.7862" stroke="#9D0A17" stroke-width="2.5239" stroke-miterlimit="22.9256" stroke-linecap="round" stroke-linejoin="round"/>
  <path d="M28.9829 30.0283C27.4219 29.4958 26.0009 28.6629 24.7857 27.6016L20.8572 29.3229L17.2695 23.1091L20.7222 20.5688C20.5683 19.7838 20.4875 18.9737 20.4875 18.1446C20.4875 17.3155 20.5683 16.504 20.7222 15.7204L17.2695 13.1788L20.8572 6.96498L24.7857 8.68628C26.0009 7.62372 27.4231 6.7921 28.9829 6.25956L29.4561 2.00049H36.6303L37.1035 6.25956C38.6646 6.7921 40.0855 7.62498 41.3008 8.68628L45.2292 6.96498L48.8182 13.1788L45.3655 15.7191C45.5195 16.504 45.6002 17.3142 45.6002 18.1433C45.6002 18.9724 45.5195 19.7838 45.3655 20.5675L48.8182 23.1091L45.2305 29.3229L41.302 27.6016C40.0868 28.6641 38.6646 29.4958 37.1048 30.0283L36.6316 34.2874H29.4574L28.9829 30.0283Z" stroke="#9D0A17" stroke-width="2.5239" stroke-miterlimit="22.9256" stroke-linecap="round" stroke-linejoin="round"/>
  <path d="M26.6024 21.5911L29.6488 18.5447L32.7481 21.6441L39.2004 15.1917" stroke="#9D0A17" stroke-width="2.5239" stroke-miterlimit="22.9256" stroke-linecap="round" stroke-linejoin="round"/>
  <path d="M36.4609 14.644H39.7483V17.9301" stroke="#9D0A17" stroke-width="2.5239" stroke-miterlimit="22.9256" stroke-linecap="round" stroke-linejoin="round"/>
</svg>