<svg xmlns="http://www.w3.org/2000/svg" width="65" height="65" viewBox="0 0 65 65" fill="none">
  <path d="M45.1568 28.208L37.0614 27.0319L33.4409 19.6962C32.9765 18.7561 31.6325 18.7561 31.1681 19.6962L27.5476 27.0319L19.4522 28.208C18.4149 28.3595 17.9997 29.6365 18.7506 30.3685L24.6085 36.0775L23.2255 44.1401C23.0488 45.1724 24.1353 45.9636 25.0641 45.4752L32.3052 41.6692L39.5449 45.4752C40.4712 45.9623 41.5603 45.1749 41.3836 44.1401L40.0005 36.0775L45.8585 30.3685C46.608 29.6378 46.1941 28.3582 45.1568 28.208ZM37.7555 34.7285C37.4564 35.02 37.3201 35.439 37.3908 35.8504L38.4521 42.039L32.8945 39.1175C32.5247 38.9232 32.0843 38.9232 31.7158 39.1175L26.1582 42.039L27.2195 35.8504C27.2902 35.439 27.1539 35.02 26.8548 34.7285L22.3585 30.3458L28.5723 29.4435C28.985 29.3829 29.3421 29.1242 29.5264 28.7507L32.3052 23.1186L35.084 28.7494C35.2682 29.1229 35.6253 29.3829 36.038 29.4422L42.2518 30.3445L37.7555 34.7285Z" fill="#9D0A17"/>
  <path d="M64.6116 32.306C64.6116 31.1803 64.0879 30.2162 63.6273 29.3656C62.855 27.9421 62.8272 27.8147 63.1844 26.1704C63.3875 25.2353 63.6185 24.1765 63.3118 23.1228C62.7881 21.3195 60.9608 20.3377 60.4989 19.318C60.0282 18.2782 60.4863 16.2477 59.4881 14.6829C58.4849 13.1105 56.4531 12.6814 55.7263 11.8347C54.9943 10.9829 54.8618 8.89434 53.4661 7.67277C52.0666 6.44869 50.0033 6.614 49.0632 6.00322C48.1268 5.39496 47.4252 3.43011 45.7329 2.64897C44.0507 1.87287 42.1212 2.61994 41.0397 2.30067C39.9835 1.98771 38.7556 0.301748 36.9031 0.0354777C35.0834 -0.225745 33.439 1.04125 32.3058 1.04125C31.1675 1.04125 29.5283 -0.225745 27.7073 0.0354777C26.5993 0.194483 25.726 0.855742 24.9562 1.43876C23.6627 2.41803 23.5492 2.45463 21.9074 2.33474C20.9559 2.26534 19.8769 2.18583 18.8774 2.64771C17.8679 3.11336 17.2192 3.99294 16.6476 4.76777C15.6721 6.08903 15.5686 6.15591 13.9697 6.50674C13.0359 6.71117 11.9771 6.94337 11.1442 7.67151C10.3126 8.39965 9.9353 9.42309 9.60341 10.3254C9.03175 11.8788 8.9472 11.9747 7.51363 12.7609C6.67317 13.2215 5.7204 13.744 5.12224 14.6816C4.52912 15.6104 4.45214 16.6969 4.38526 17.6548C4.2679 19.313 4.21616 19.4278 3.06148 20.5888C2.38129 21.2715 1.6115 22.0463 1.2998 23.1215C0.994413 24.1752 1.22409 25.234 1.42726 26.1691C1.78439 27.8084 1.76168 27.9333 0.984318 29.3644C0.523708 30.2162 0 31.1803 0 32.306C0 34.1875 1.47774 35.6602 1.6317 36.7543C1.79323 37.8989 0.783668 39.7123 1.2998 41.4891C1.82351 43.2925 3.65081 44.2743 4.11268 45.2939C4.58339 46.3337 4.1253 48.3642 5.1235 49.929C6.12675 51.5014 8.15848 51.9305 8.88536 52.7772C9.61729 53.6291 9.74979 55.7176 11.1455 56.9391C12.545 58.1632 14.6083 57.9979 15.5484 58.6087C16.4848 59.2169 17.1864 61.1818 18.8787 61.9642C19.8782 62.4261 20.9571 62.3466 21.9086 62.2772C23.5492 62.1573 23.6627 62.1926 24.9575 63.1731C25.9696 63.9392 26.9211 64.613 28.2158 64.613C29.8147 64.613 31.2925 63.5719 32.3071 63.5719C33.4441 63.5719 35.0834 64.8377 36.9056 64.5777C38.7569 64.3114 39.9923 62.6229 41.0423 62.3125C42.1225 61.9932 44.0545 62.7403 45.7354 61.9642C46.745 61.4985 47.3936 60.619 47.9653 59.8441C48.9408 58.5229 49.0443 58.456 50.6431 58.1052C51.577 57.9007 52.6358 57.6685 53.4686 56.9404C54.3003 56.2123 54.6776 55.1888 55.0095 54.2865C55.5811 52.7331 55.6657 52.6372 57.0993 51.851C57.9397 51.3904 58.8925 50.8679 59.4907 49.9303C60.4888 48.3667 60.032 46.3312 60.5015 45.2952C60.9633 44.2768 62.7906 43.2899 63.3143 41.4904C63.8292 39.7186 62.8222 37.8901 62.9825 36.7556C63.1339 35.664 64.6116 34.1837 64.6116 32.306ZM60.4712 36.3997C60.2352 38.0743 61.1451 39.865 60.8788 40.7812C60.6037 41.7302 58.8887 42.7082 58.1921 44.2465C57.4892 45.7974 57.8766 47.7459 57.3529 48.5649C56.8279 49.3864 54.9085 49.8407 53.8056 51.1241C52.7014 52.4088 52.5298 54.39 51.7978 55.0311C51.0773 55.662 49.1011 55.5611 47.6826 56.4823C46.2743 57.3985 45.5499 59.2561 44.6716 59.6612C43.8072 60.0599 41.9496 59.3987 40.3217 59.8807C38.7279 60.3527 37.5025 61.9289 36.5434 62.0677C35.6247 62.2015 34.0044 61.0367 32.3058 61.0367C30.5934 61.0367 28.997 62.2027 28.0682 62.0677C27.6076 62.0008 27.0624 61.5894 26.4857 61.1515C25.2074 60.1823 24.43 59.694 22.8336 59.694C21.7118 59.694 20.5445 59.94 19.9387 59.6599C19.0592 59.2535 18.3399 57.3997 16.9277 56.4811C15.5106 55.5598 13.5356 55.662 12.8138 55.0298C12.0806 54.3875 11.914 52.4125 10.806 51.1228C9.70184 49.8382 7.78494 49.3877 7.25871 48.5636C6.73879 47.7484 7.1199 45.7911 6.41952 44.2452C5.72292 42.7069 4.0092 41.7302 3.73284 40.7799C3.4653 39.86 4.37895 38.0857 4.14044 36.3984C4.01677 35.5201 3.58897 34.7314 3.21165 34.0361C2.31062 32.3754 2.31188 32.2328 3.21165 30.5733C3.58897 29.878 4.01677 29.0893 4.14044 28.2109C4.37643 26.5363 3.46657 24.7456 3.73284 23.8295C4.00794 22.8805 5.72292 21.9025 6.41952 20.3642C7.12242 18.8132 6.735 16.8648 7.25871 16.0458C7.78368 15.2243 9.7031 14.77 10.806 13.4866C11.9102 12.2019 12.0819 10.2206 12.8138 9.57957C13.5344 8.9486 15.5106 9.04956 16.929 8.12834C18.3373 7.21216 19.0617 5.35458 19.94 4.94949C20.7994 4.55324 22.6683 5.21072 24.2899 4.72992C25.8838 4.25795 27.1091 2.68178 28.0682 2.54296C28.9907 2.41046 30.6047 3.57397 32.3058 3.57397C34.0145 3.57397 35.6159 2.4092 36.5434 2.54296C37.5164 2.68304 38.7064 4.25164 40.3217 4.72992C41.937 5.20819 43.8148 4.55324 44.6716 4.94949C45.5512 5.35584 46.2705 7.20964 47.6826 8.12834C49.0998 9.04956 51.0747 8.94734 51.7978 9.57957C52.5323 10.2219 52.6976 12.1968 53.8056 13.4866C54.9098 14.7712 56.8279 15.2217 57.3529 16.0458C57.8728 16.861 57.4917 18.8183 58.1921 20.3642C58.8887 21.9025 60.6024 22.8792 60.8788 23.8295C61.1463 24.7494 60.2327 26.5237 60.4712 28.2109C60.7059 29.878 62.0776 31.2977 62.0776 32.3047C62.0776 32.788 60.7059 34.7314 60.4712 36.3997Z" fill="#9D0A17"/>
  <path d="M32.3061 6.96729C18.3351 6.96729 6.96875 18.3349 6.96875 32.3059C6.96875 46.2769 18.3351 57.6432 32.3061 57.6432C46.2771 57.6432 57.6434 46.2769 57.6434 32.3059C57.6434 18.3349 46.2771 6.96729 32.3061 6.96729ZM32.3061 55.1093C19.7321 55.1093 9.50148 44.8799 9.50148 32.3046C9.50148 19.7293 19.7321 9.50127 32.3061 9.50127C44.8801 9.50127 55.1107 19.7319 55.1107 32.3059C55.1107 44.8799 44.8801 55.1093 32.3061 55.1093Z" fill="#9D0A17"/>
</svg>