<svg xmlns="http://www.w3.org/2000/svg" width="66" height="63" viewBox="0 0 66 63" fill="none">
  <path d="M64.0877 61.5537H2" stroke="#9D0A17" stroke-width="2.52389" stroke-miterlimit="10" stroke-linecap="round" stroke-linejoin="round"/>
  <path d="M32.4091 38.7456H8.33496V45.0806H32.4091V38.7456Z" stroke="#9D0A17" stroke-width="2.52389" stroke-miterlimit="10" stroke-linecap="round" stroke-linejoin="round"/>
  <path d="M34.9443 50.1494H5.80093V56.4844H34.9443V50.1494Z" stroke="#9D0A17" stroke-width="2.52389" stroke-miterlimit="10" stroke-linecap="round" stroke-linejoin="round"/>
  <path d="M31.1436 61.5538V56.4858" stroke="#9D0A17" stroke-width="2.52389" stroke-miterlimit="10" stroke-linecap="round" stroke-linejoin="round"/>
  <path d="M9.60339 61.5539V56.486" stroke="#9D0A17" stroke-width="2.52389" stroke-miterlimit="10" stroke-linecap="round" stroke-linejoin="round"/>
  <path d="M29.8773 45.0815H10.8711V50.1495H29.8773V45.0815Z" stroke="#9D0A17" stroke-width="2.52389" stroke-miterlimit="10" stroke-linecap="round" stroke-linejoin="round"/>
  <path d="M10.8711 36.2114V38.7454" stroke="#9D0A17" stroke-width="2.52389" stroke-miterlimit="10" stroke-linecap="round" stroke-linejoin="round"/>
  <path d="M29.8768 38.7454V36.2114" stroke="#9D0A17" stroke-width="2.52389" stroke-miterlimit="10" stroke-linecap="round" stroke-linejoin="round"/>
  <path d="M40.7073 22.1583C40.2605 21.015 40.0132 19.7732 40.0132 18.4722C40.0132 12.8742 44.5511 8.33496 50.1504 8.33496C55.7484 8.33496 60.2876 12.8729 60.2876 18.4722C60.2876 19.7732 60.0403 21.0163 59.5935 22.1583C62.3572 24.7049 64.0886 28.3545 64.0886 32.4091C64.0886 40.107 57.8483 46.3473 50.1504 46.3473C42.4525 46.3473 36.2109 40.1082 36.2109 32.4104C36.2109 28.3557 37.9436 24.7062 40.7073 22.1583Z" stroke="#9D0A17" stroke-width="2.52389" stroke-miterlimit="10" stroke-linecap="round" stroke-linejoin="round"/>
  <path d="M50.1494 28.6096V61.5539" stroke="#9D0A17" stroke-width="2.52389" stroke-miterlimit="10" stroke-linecap="round" stroke-linejoin="round"/>
  <path d="M46.3485 31.1432L50.1495 33.6772" stroke="#9D0A17" stroke-width="2.52389" stroke-miterlimit="10" stroke-linecap="round" stroke-linejoin="round"/>
  <path d="M46.3485 37.4783L50.1495 40.0122" stroke="#9D0A17" stroke-width="2.52389" stroke-miterlimit="10" stroke-linecap="round" stroke-linejoin="round"/>
  <path d="M53.9504 33.6773L50.1494 36.2113" stroke="#9D0A17" stroke-width="2.52389" stroke-miterlimit="10" stroke-linecap="round" stroke-linejoin="round"/>
  <path d="M19.7393 17.204C23.238 17.204 26.0743 14.3678 26.0743 10.869C26.0743 7.37034 23.238 4.53408 19.7393 4.53408C16.2406 4.53408 13.4043 7.37034 13.4043 10.869C13.4043 14.3678 16.2406 17.204 19.7393 17.204Z" stroke="#9D0A17" stroke-width="2.52389" stroke-miterlimit="10" stroke-linecap="round" stroke-linejoin="round"/>
  <path d="M19.7393 4.53399V2" stroke="#9D0A17" stroke-width="2.52389" stroke-miterlimit="10" stroke-linecap="round" stroke-linejoin="round"/>
  <path d="M25.2266 7.70156L27.4211 6.43457" stroke="#9D0A17" stroke-width="2.52389" stroke-miterlimit="10" stroke-linecap="round" stroke-linejoin="round"/>
  <path d="M25.2266 14.0376L27.4211 15.3046" stroke="#9D0A17" stroke-width="2.52389" stroke-miterlimit="10" stroke-linecap="round" stroke-linejoin="round"/>
  <path d="M19.7393 17.2051V19.7391" stroke="#9D0A17" stroke-width="2.52389" stroke-miterlimit="10" stroke-linecap="round" stroke-linejoin="round"/>
  <path d="M14.2524 14.0375L12.0578 15.3045" stroke="#9D0A17" stroke-width="2.52389" stroke-miterlimit="10" stroke-linecap="round" stroke-linejoin="round"/>
  <path d="M14.2524 7.70154L12.0578 6.43455" stroke="#9D0A17" stroke-width="2.52389" stroke-miterlimit="10" stroke-linecap="round" stroke-linejoin="round"/>
  <path d="M56.7166 52.6885C59.3591 52.8059 61.493 54.9916 61.5524 57.6354C61.5877 59.1964 60.9151 60.5997 59.8361 61.5524H50.1494V53.9505C50.499 53.9505 50.841 53.9858 51.1716 54.054C52.0461 54.2332 52.9471 54.0161 53.6917 53.5227C54.5511 52.9535 55.596 52.6393 56.7166 52.6885Z" stroke="#9D0A17" stroke-width="2.52389" stroke-miterlimit="10" stroke-linecap="round" stroke-linejoin="round"/>
</svg>