<svg xmlns="http://www.w3.org/2000/svg" width="33" height="66" viewBox="0 0 33 66" fill="none">
  <path d="M19.0811 10.4436C19.0685 10.4335 19.071 10.4348 19.0533 10.4209C18.8401 10.2531 17.3976 9.20315 15.4505 9.78869C13.4288 10.3982 12.9266 13.1631 14.3008 14.2408C15.0896 14.8592 16.2758 15.3678 17.8759 15.9331C21.4561 17.1988 20.1323 22.2479 16.4903 22.2719C15.0694 22.2807 14.4043 22.1911 13.1562 21.3746" stroke="#9D0A17" stroke-width="2.52389" stroke-miterlimit="10" stroke-linecap="round" stroke-linejoin="round"/>
  <path d="M16.5723 7.06787V9.60312" stroke="#9D0A17" stroke-width="2.52389" stroke-miterlimit="10" stroke-linecap="round" stroke-linejoin="round"/>
  <path d="M16.5723 22.2729V24.8082" stroke="#9D0A17" stroke-width="2.52389" stroke-miterlimit="10" stroke-linecap="round" stroke-linejoin="round"/>
  <path d="M16.571 29.8764C24.2689 29.8764 30.5092 23.636 30.5092 15.9382C30.5092 8.24034 24.2689 2 16.571 2C8.87315 2 2.63281 8.24034 2.63281 15.9382C2.63281 23.636 8.87315 29.8764 16.571 29.8764Z" stroke="#9D0A17" stroke-width="2.52389" stroke-miterlimit="10" stroke-linecap="round" stroke-linejoin="round"/>
  <path d="M21.6916 64.0877H11.4522C9.64001 64.0877 8.08025 62.8081 7.72438 61.0325L4.53418 45.0815H28.6096L25.4194 61.0325C25.0635 62.8081 23.5038 64.0877 21.6916 64.0877Z" stroke="#9D0A17" stroke-width="2.52389" stroke-miterlimit="10" stroke-linecap="round" stroke-linejoin="round"/>
  <path d="M2 45.0816H31.1434" stroke="#9D0A17" stroke-width="2.52389" stroke-miterlimit="10" stroke-linecap="round" stroke-linejoin="round"/>
  <path d="M16.5723 29.8765V45.0817" stroke="#9D0A17" stroke-width="2.52389" stroke-miterlimit="10" stroke-linecap="round" stroke-linejoin="round"/>
  <path d="M21.2818 45.0816H16.5723V41.0056C16.5723 38.358 18.7188 36.2114 21.3664 36.2114H26.076V40.2875C26.0747 42.9351 23.9294 45.0816 21.2818 45.0816Z" stroke="#9D0A17" stroke-width="2.52389" stroke-miterlimit="10" stroke-linecap="round" stroke-linejoin="round"/>
  <path d="M11.8623 45.0816H16.5719V41.0055C16.5719 38.3579 14.4253 36.2114 11.7777 36.2114H7.06815V40.2874C7.06815 42.935 9.21472 45.0816 11.8623 45.0816Z" stroke="#9D0A17" stroke-width="2.52389" stroke-miterlimit="10" stroke-linecap="round" stroke-linejoin="round"/>
  <path d="M27.3424 51.4166H5.80093" stroke="#9D0A17" stroke-width="2.52389" stroke-miterlimit="10" stroke-linecap="round" stroke-linejoin="round"/>
</svg>