<svg xmlns="http://www.w3.org/2000/svg" width="67" height="67" viewBox="0 0 67 67" fill="none">
  <path d="M31.4689 45.834C25.9861 42.3248 22.7129 36.3441 22.7129 29.8344V24.5625L33.7171 20.1608L44.7203 24.5625V29.8344C44.7203 36.3441 41.447 42.3248 35.9643 45.834L33.7161 47.2728L31.4689 45.834Z" stroke="#9D0A17" stroke-width="2.24124" stroke-miterlimit="10" stroke-linecap="round"/>
  <path d="M29.1855 32.7082L32.422 35.9447L38.247 30.1187" stroke="#9D0A17" stroke-width="2.24124" stroke-miterlimit="10" stroke-linecap="round"/>
  <path d="M65.4334 38.2479V29.1864H59.2119C58.5457 25.4094 57.0604 21.9167 54.9466 18.8949L59.3483 14.4933L52.9401 8.08613L48.5385 12.4878C45.5167 10.374 42.024 8.88871 38.2479 8.2215V2H29.1864V8.2215C25.4104 8.88775 21.9177 10.374 18.8959 12.4878L14.4943 8.08613L8.08613 14.4943L12.4878 18.8959C10.374 21.9177 8.88871 25.4104 8.2215 29.1864H2V38.2479H8.2215C8.88775 42.024 10.374 45.5167 12.4878 48.5385L8.08613 52.9401L14.4943 59.3482L18.8959 54.9466C21.9177 57.0604 25.4104 58.5457 29.1864 59.2129V65.4344H38.2479V59.2129C42.024 58.5466 45.5167 57.0604 48.5385 54.9466L52.9401 59.3482L59.3483 52.9401L54.9466 48.5385C57.0604 45.5167 58.5457 42.024 59.2129 38.2479H65.4334Z" stroke="#9D0A17" stroke-width="2.24124" stroke-miterlimit="10" stroke-linecap="round"/>
  <path d="M54.429 33.7168C54.429 45.1561 45.1557 54.4294 33.7164 54.4294C22.2772 54.4294 13.0029 45.1561 13.0029 33.7168C13.0029 22.2776 22.2762 13.0043 33.7164 13.0043C45.1557 13.0043 54.429 22.2776 54.429 33.7168Z" stroke="#9D0A17" stroke-width="2.24124" stroke-miterlimit="10" stroke-linecap="round"/>
</svg>