<svg xmlns="http://www.w3.org/2000/svg" width="63" height="65" viewBox="0 0 63 65" fill="none">
  <path d="M24.0908 31.0443C23.4018 31.0443 22.8402 31.597 22.8289 32.2847L22.7443 37.354C22.733 38.0581 23.3008 38.6374 24.0063 38.6374H27.8918C28.5884 38.6374 29.1537 38.072 29.1537 37.3754C29.1537 36.6788 28.5884 36.1135 27.8918 36.1135H25.2897L25.3326 33.5694H27.893C28.5896 33.5694 29.155 33.0041 29.155 32.3075V27.2395C29.155 26.5429 28.5896 25.9775 27.893 25.9775H24.0908C23.3942 25.9775 22.8289 26.5429 22.8289 27.2395C22.8289 27.9361 23.3942 28.5014 24.0908 28.5014H26.6298V31.0443H24.0908Z" fill="#9D0A17"/>
  <path d="M32.9592 33.5682H36.7652V37.3743C36.7652 38.0708 37.3306 38.6362 38.0272 38.6362C38.7238 38.6362 39.2891 38.0708 39.2891 37.3743V27.237C39.2891 26.5404 38.7238 25.9751 38.0272 25.9751C37.3306 25.9751 36.7652 26.5404 36.7652 27.237V31.0443H34.2212V27.2383C34.2212 26.5417 33.6558 25.9764 32.9592 25.9764C32.2626 25.9764 31.6973 26.5417 31.6973 27.2383V32.3063C31.6973 33.0029 32.2626 33.5682 32.9592 33.5682Z" fill="#9D0A17"/>
  <path d="M52.997 10.1314C47.134 4.23811 39.3377 0.993652 31.0442 0.993652C30.3476 0.993652 29.7822 1.559 29.7822 2.2556C29.7822 2.95219 30.3476 3.51754 31.0442 3.51754C46.7705 3.51754 59.5641 16.378 59.5641 32.1852C59.5641 44.1408 52.3849 54.5973 41.4792 58.8766L42.1695 56.0473C42.3348 55.3696 41.9196 54.6869 41.242 54.5229C40.5643 54.3576 39.8816 54.7727 39.7175 55.4504L38.4783 60.5323C38.3395 61.1014 38.6158 61.6983 39.1396 61.9595L44.1798 64.4796C44.8032 64.7913 45.5616 64.5389 45.8733 63.9155C46.185 63.2921 45.9326 62.5337 45.3092 62.222L42.9014 61.0181C54.0684 56.3552 62.088 45.3271 62.088 32.1852C62.088 23.8551 58.86 16.0222 52.997 10.1314Z" fill="#9D0A17"/>
  <path d="M31.0439 60.8528C15.3175 60.8528 2.52389 47.9923 2.52389 32.1852C2.52389 20.6674 9.3384 10.3763 19.7078 5.86986L19.0251 8.55402C18.8535 9.22916 19.2611 9.91566 19.9362 10.0885C20.6088 10.2602 21.2979 9.85509 21.4707 9.17742C21.819 7.80695 22.7478 4.16876 22.768 4.07285C22.8879 3.50245 22.6002 2.93836 22.0992 2.68723L17.011 0.134316C16.3876 -0.177384 15.6292 0.0737428 15.3175 0.697144C15.0058 1.32055 15.2569 2.07771 15.8803 2.39068L18.4358 3.67281C7.30036 8.63478 0 19.7538 0 32.1852C0 40.5153 3.22806 48.3482 9.0898 54.239C14.9541 60.131 22.7504 63.3767 31.0439 63.3767C31.7405 63.3767 32.3058 62.8114 32.3058 62.1148C32.3058 61.4182 31.7405 60.8528 31.0439 60.8528Z" fill="#9D0A17"/>
  <path d="M9.73145 32.3062C9.73145 44.0436 19.2806 53.5915 31.0167 53.5915C42.7528 53.5915 52.3019 44.0436 52.3019 32.3062C52.3019 20.5689 42.754 11.021 31.0167 11.021C19.2793 11.021 9.73145 20.5689 9.73145 32.3062ZM31.0167 13.5449C41.3621 13.5449 49.778 21.9608 49.778 32.3062C49.778 42.6517 41.3621 51.0676 31.0167 51.0676C20.6713 51.0676 12.2553 42.6517 12.2553 32.3062C12.2553 21.9608 20.6713 13.5449 31.0167 13.5449Z" fill="#9D0A17"/>
</svg>