<svg xmlns="http://www.w3.org/2000/svg" width="84" height="84" viewBox="0 0 84 84" fill="none">
  <path d="M83.1898 30.4059C83.185 29.5358 82.7553 28.723 82.039 28.2291C81.2632 27.7055 80.283 27.5869 79.4046 27.9102L65.1653 33.2759V25.3174L65.5951 25.6086C66.2813 26.0902 67.1 26.347 67.9383 26.3434C69.3144 26.344 70.6016 25.664 71.3768 24.5271C72.6651 22.6345 72.1818 20.0566 70.2954 18.7593L43.9519 0.734843C43.2587 0.256989 42.4368 0.000751037 41.5949 0C40.7529 0.000751037 39.931 0.256989 39.2378 0.734843L12.8944 18.7593C11.9782 19.3806 11.3475 20.3416 11.1419 21.4294C10.9363 22.5171 11.1728 23.642 11.7991 24.5548C12.5833 25.6853 13.8757 26.3549 15.2515 26.3434C16.0872 26.344 16.9037 26.0927 17.5946 25.6224L18.0245 25.3174V33.6364L3.81286 27.9379C2.95902 27.5925 1.98939 27.6936 1.22517 28.2077C0.460941 28.7218 0.00186421 29.5819 0 30.5029V67.9383C0 69.4698 1.24151 70.7113 2.77299 70.7113H3.81286C5.36305 70.7015 6.77918 69.8305 7.48708 68.4513L8.65174 66.1359L11.092 67.2728C10.2763 69.4317 11.2693 71.8538 13.3658 72.8188C13.9436 73.0865 14.5731 73.2237 15.2099 73.2209C15.751 73.2174 16.2869 73.114 16.7905 72.9158C17.243 74.0758 18.1277 75.0151 19.2584 75.5363C19.8942 75.8258 20.5842 75.977 21.2827 75.98C21.8603 75.981 22.4334 75.8776 22.9742 75.675C23.4132 76.9026 24.3276 77.902 25.5115 78.448C26.1452 78.7437 26.8365 78.8953 27.5358 78.8916C28.0349 78.8889 28.5306 78.8094 29.0055 78.6559V78.7253C29.3866 79.7626 30.1648 80.6057 31.1684 81.0684C32.9893 81.9012 35.1451 81.3186 36.2985 79.6819L39.5845 82.3301C40.8049 83.2523 42.409 83.4947 43.8474 82.9742C45.2858 82.4536 46.3634 81.2409 46.7111 79.7513C48.1959 80.1835 49.7981 79.7563 50.8705 78.6421C51.5656 77.9567 51.9975 77.0487 52.0907 76.077C52.2892 76.0899 52.4883 76.0899 52.6869 76.077C55.2177 76.0829 57.3682 74.2278 57.7337 71.7234C58.2834 71.9091 58.8589 72.0074 59.4391 72.0146C60.8486 72.0183 62.2014 71.46 63.1981 70.4633C64.1948 69.4667 64.7531 68.1138 64.7494 66.7043C64.7453 66.0088 64.604 65.3208 64.3334 64.68L73.1515 61.0058L75.7304 65.7754C76.4597 67.1082 77.8576 67.9374 79.3769 67.9383H80.4168C81.9111 67.9392 83.1375 66.7558 83.1898 65.2624V30.4059ZM16.0279 23.3347C15.3961 23.7673 14.5333 23.6059 14.1007 22.9742C13.8926 22.6652 13.8176 22.2854 13.8927 21.9205C13.9614 21.5665 14.1653 21.2532 14.4612 21.047L40.8046 3.02256C41.0338 2.8556 41.3113 2.76798 41.5949 2.77299C41.8776 2.77366 42.1534 2.86074 42.3852 3.02256L68.7286 21.047C69.3517 21.479 69.5123 22.3313 69.0891 22.9604C68.6564 23.5921 67.7936 23.7534 67.1619 23.3209L42.3852 6.37788C41.9099 6.04816 41.2799 6.04816 40.8046 6.37788L16.0279 23.3347ZM41.5949 9.19247L62.3923 23.4318V34.6624C60.9688 35.8307 60.5838 37.8494 61.4772 39.4597L62.8637 42.0386L59.1202 43.4251C57.8409 43.9222 56.3987 43.7561 55.2657 42.9814L48.5274 38.0039V30.5029C48.5274 28.9714 47.2859 27.7299 45.7544 27.7299H37.4354C35.9039 27.7299 34.6624 28.9714 34.6624 30.5029V39.5567C34.1382 40.2848 33.6745 41.0546 33.2759 41.8583C31.7775 41.9953 30.2903 42.2362 28.8253 42.5793C28.0105 42.7818 27.1804 42.9163 26.3434 42.9814C24.5055 42.7621 22.7162 42.2422 21.047 41.4424L21.7125 40.0559C22.5753 38.3772 22.1996 36.328 20.7974 35.0645V23.4318L41.5949 9.19247ZM45.7544 36.1182C43.0838 34.7495 39.8719 34.9904 37.4354 36.7421V30.5029H45.7544V36.1182ZM3.81286 67.9383H2.77299V30.5029L18.5513 36.9085C18.9087 37.0526 19.19 37.3389 19.3278 37.6988C19.4728 38.0804 19.4424 38.5064 19.2446 38.8635L5.01912 67.2035C4.78129 67.6502 4.31893 67.9319 3.81286 67.9383ZM14.475 70.2538C13.6576 69.8768 13.2982 68.9103 13.6709 68.0908L15.2515 64.7632C15.6284 63.9458 16.595 63.5864 17.4144 63.9591C17.8107 64.134 18.1169 64.4653 18.2602 64.8742C18.4258 65.2784 18.4258 65.7316 18.2602 66.1359L16.638 69.4635C16.4572 69.8562 16.1271 70.1606 15.721 70.309C15.3149 70.4574 14.8664 70.4375 14.475 70.2538ZM21.9482 73.0267C21.4431 73.2409 20.8727 73.2409 20.3676 73.0267C19.8634 72.8022 19.4728 72.3815 19.2862 71.8621C19.0788 71.3508 19.0788 70.7789 19.2862 70.2676L21.6709 65.1653C21.9007 64.6649 22.3195 64.2759 22.8356 64.0839C23.0672 64.0021 23.3109 63.96 23.5566 63.9591C23.8571 63.9574 24.1547 64.0188 24.4301 64.1393C24.9314 64.3748 25.3199 64.7981 25.5115 65.3178C25.7265 65.8276 25.7265 66.4025 25.5115 66.9123L23.1268 71.9592C22.8913 72.4605 22.4679 72.849 21.9482 73.0406V73.0267ZM26.6623 75.7997C25.6205 75.3106 25.1638 74.0762 25.6363 73.0267L27.3833 69.3248C27.6167 68.827 28.0343 68.4393 28.548 68.2433C28.7796 68.1616 29.0233 68.1194 29.2689 68.1186C29.5713 68.1133 29.8707 68.1798 30.1424 68.3127C30.6457 68.5385 31.0359 68.9588 31.2239 69.4773C31.4169 69.9964 31.3919 70.5714 31.1546 71.0718L29.5462 74.5935L29.4353 74.8292C29.2059 75.335 28.7838 75.7281 28.2629 75.9208C27.742 76.1135 27.1657 76.0899 26.6623 75.8552V75.7997ZM32.3331 78.4064C31.9995 78.2532 31.7402 77.974 31.6121 77.6299C31.4696 77.2883 31.4696 76.9039 31.6121 76.5623L32.0419 75.6334L33.3314 72.8604C33.5812 72.3615 34.1057 72.0611 34.6624 72.0978C34.8633 72.0967 35.062 72.1393 35.2447 72.2226C35.586 72.3737 35.8519 72.656 35.9824 73.0056C36.1128 73.3553 36.0968 73.7428 35.938 74.0805L34.2049 77.8379C34.0462 78.1754 33.7582 78.4347 33.406 78.5573C33.0538 78.68 32.6671 78.6555 32.3331 78.4895V78.4064ZM61.2277 68.4375C60.2902 69.3837 58.7786 69.4384 57.7753 68.5622L51.0369 62.6558L49.4425 61.2693C49.3027 61.1428 49.1371 61.0482 48.9572 60.992C48.888 60.9852 48.8184 60.9852 48.7492 60.992C48.4685 60.9378 48.178 60.9717 47.9173 61.089C47.7565 61.1752 47.6112 61.2877 47.4875 61.4218C47.2435 61.6839 47.1182 62.0349 47.1409 62.3923C47.135 62.4337 47.135 62.4757 47.1409 62.5171C47.1864 62.8309 47.3381 63.1196 47.5707 63.3351L54.1843 69.1307C55.1261 70.0113 55.1758 71.4887 54.2952 72.4306C53.4146 73.3724 51.9372 73.4221 50.9953 72.5415L50.8428 72.389L45.2968 66.843C44.7532 66.2993 43.8717 66.2993 43.328 66.843C42.7843 67.3867 42.7843 68.2681 43.328 68.8118L48.874 74.3578C49.167 74.647 49.3319 75.0415 49.3319 75.4531C49.3319 75.8648 49.167 76.2593 48.874 76.5485C48.2547 77.1313 47.2887 77.1313 46.6695 76.5485L45.4771 75.3422L43.9242 73.7893C43.6639 73.5268 43.3095 73.3792 42.9398 73.3792C42.5701 73.3792 42.2157 73.5268 41.9554 73.7893C41.6929 74.0497 41.5452 74.404 41.5452 74.7737C41.5452 75.1434 41.6929 75.4978 41.9554 75.7581L43.5082 77.311C43.8486 77.6364 44.0393 78.088 44.0351 78.5589C44.0062 79.2018 43.6315 79.7788 43.0559 80.0666C42.4802 80.3544 41.7938 80.3081 41.2621 79.9454L37.574 77.0892L38.4337 75.2036C38.904 74.1985 38.9532 73.0473 38.5705 72.0058C38.1877 70.9643 37.4047 70.1189 36.3955 69.6576C35.6576 69.3241 34.8385 69.2133 34.0385 69.3387C33.9905 69.061 33.9209 68.7875 33.8305 68.5206C33.0144 66.2839 30.6888 64.9768 28.3538 65.4426C28.1777 63.9731 27.3387 62.6651 26.0765 61.8921C24.8144 61.1192 23.2679 60.9663 21.8789 61.4772C21.2032 61.7336 20.5925 62.136 20.0903 62.6558C19.6782 62.1303 19.1455 61.7118 18.5375 61.4356C16.3283 60.4143 13.7093 61.3762 12.6864 63.5847L12.1734 64.7216L9.89958 63.6402L19.7992 43.9242C21.8583 44.9082 24.0726 45.5274 26.3434 45.7544C27.359 45.6928 28.3664 45.5349 29.3521 45.283C30.1286 45.1166 30.9605 44.9502 31.834 44.8116L29.5601 49.9139C28.501 52.3285 29.5267 55.1491 31.8894 56.3195H32.0281C32.6772 56.6307 33.388 56.7918 34.1078 56.7909C35.5311 56.7969 36.8868 56.1847 37.8236 55.1132L43.3003 49.0126L61.1168 64.8326C61.6423 65.2942 61.9526 65.9533 61.9736 66.6525C61.9946 67.3517 61.7245 68.0282 61.2277 68.5206V68.4375ZM62.6142 62.3507L42.51 44.7145C41.9319 44.2489 41.0897 44.3211 40.5994 44.8783C40.1091 45.4355 40.1445 46.2801 40.6798 46.7942L41.1789 47.2379L35.7161 53.3246C35.0654 54.0679 33.9978 54.2837 33.1095 53.8515H33.0125C32.0409 53.2994 31.6406 52.1045 32.0835 51.0785L35.3002 43.9519C36.0586 42.2686 37.1478 40.7551 38.503 39.5013C40.3426 37.7958 43.1328 37.6331 45.1582 39.1131L53.6019 45.2691C55.4816 46.6182 57.9103 46.9406 60.0769 46.1287L64.2364 44.5897L71.8205 58.6072L62.6142 62.3507ZM79.4046 65.1237C78.9081 65.1365 78.4426 64.8826 78.1845 64.4582L63.9452 38.1148C63.7916 37.8389 63.7663 37.5097 63.8759 37.2136C64.0087 36.8758 64.282 36.6126 64.6246 36.4926L80.4168 30.4059V65.1653L79.4046 65.1237Z" fill="white"/>
  <path d="M41.5948 24.9571C44.6578 24.9571 47.1408 22.474 47.1408 19.4111C47.1408 16.3481 44.6578 13.8651 41.5948 13.8651C38.5319 13.8651 36.0488 16.3481 36.0488 19.4111C36.0488 22.474 38.5319 24.9571 41.5948 24.9571ZM41.5948 16.6381C43.1263 16.6381 44.3678 17.8796 44.3678 19.4111C44.3678 20.9426 43.1263 22.1841 41.5948 22.1841C40.0633 22.1841 38.8218 20.9426 38.8218 19.4111C38.8218 17.8796 40.0633 16.6381 41.5948 16.6381Z" fill="white"/>
</svg>