<svg xmlns="http://www.w3.org/2000/svg" width="80" height="81" viewBox="0 0 80 81" fill="none">
  <path fill-rule="evenodd" clip-rule="evenodd" d="M27.7024 23.4386C28.5757 23.5778 29.4503 23.4676 30.2449 23.1299V41.3734C30.2449 43.1419 31.6836 44.5806 33.4521 44.5806H62.5004C64.2688 44.5806 65.7074 43.1419 65.7074 41.3734V23.1297C66.2765 23.3718 66.8862 23.4977 67.5077 23.4977C67.7542 23.4977 68.0022 23.478 68.2501 23.4386C69.4755 23.2429 70.5515 22.5818 71.2797 21.5769C72.0079 20.5719 72.3012 19.3436 72.1056 18.1182C71.91 16.8927 71.2488 15.8168 70.2452 15.0895L62.1857 9.23391V2.86031C62.1857 2.14247 61.6037 1.56047 60.8858 1.56047H56.5813C55.8634 1.56047 55.2814 2.14247 55.2814 2.86031V4.21766L50.7716 0.941091C49.1319 -0.294732 46.915 -0.315692 45.2488 0.891697L25.7084 15.0886C24.7035 15.8166 24.0424 16.8927 23.8467 18.1182C23.6511 19.3436 23.9444 20.5721 24.6726 21.5769C25.401 22.5818 26.477 23.2429 27.7024 23.4386ZM51.7428 41.9809H44.21V31.7013C44.21 30.4821 45.2018 29.4903 46.4211 29.4903H49.5317C50.751 29.4903 51.7428 30.4821 51.7428 31.7013V41.9809ZM62.5006 41.9809H54.3425V31.7013C54.3425 29.0487 52.1844 26.8906 49.5317 26.8906H46.4211C43.7684 26.8906 41.6104 29.0487 41.6104 31.7013V41.9809H33.4522C33.1229 41.9809 32.8447 41.7028 32.8447 41.3734V21.3895L47.9765 10.3958L63.1081 21.3895V41.3734C63.1079 41.7028 62.8298 41.9809 62.5006 41.9809ZM57.8813 4.16015H59.5862V7.34524L57.8813 6.10649V4.16015ZM27.2354 17.1927L46.7758 2.99581C47.4994 2.47165 48.5015 2.48189 49.2125 3.02116C49.2196 3.02652 49.2268 3.03172 49.2339 3.03708L68.7187 17.1936C69.6323 17.8557 69.837 19.1379 69.1751 20.0515C68.8542 20.4943 68.3804 20.7854 67.8406 20.8715C67.3007 20.9581 66.7598 20.8286 66.3185 20.5089L48.7403 7.73747C48.5125 7.5719 48.2444 7.4892 47.9763 7.4892C47.7082 7.4892 47.4401 7.57206 47.2123 7.73747L29.6349 20.5082C29.1925 20.8286 28.6513 20.9578 28.1122 20.8714C27.5724 20.7853 27.0986 20.4941 26.7777 20.0513C26.1158 19.1377 26.3205 17.8557 27.2354 17.1927ZM78.7484 48.8608C77.9878 47.5912 74.8666 43.8204 66.632 48.6161L52.1309 57.0622C51.4134 57.4799 50.6839 57.7764 49.9228 57.9552C50.2039 57.5028 50.4246 56.9913 50.576 56.4262C51.319 53.6529 49.671 50.7573 46.8235 49.8343C46.7678 49.8164 46.7111 49.8021 46.6534 49.7915C42.4869 49.0401 38.3744 47.5534 35.0697 46.3586C33.9213 45.9433 32.8364 45.5511 31.9139 45.252C28.1937 44.0449 24.8354 45.538 22.0408 47.1572L11.2657 53.3999L10.4923 52.0334C9.55987 50.3851 7.46014 49.8031 5.81113 50.736L1.74247 53.0387C0.0941078 53.9713 -0.488058 56.0714 0.445065 57.7199L12.4068 78.8555C13.0381 79.9707 14.2035 80.5979 15.402 80.5979C15.9747 80.5979 16.5551 80.4546 17.0881 80.153L21.1567 77.8502C22.8051 76.9174 23.3871 74.8173 22.4541 73.169L20.9882 70.5787L23.4314 69.1681L41.9992 74.1434C43.0494 74.4248 44.0802 74.5653 45.0889 74.5653C47.0997 74.5653 49.0224 74.0067 50.8316 72.8929L77.1477 56.6888C79.5522 55.208 80.3154 51.4771 78.7484 48.8608ZM19.8762 75.5877L15.8076 77.8903C15.4139 78.1134 14.8925 77.969 14.6692 77.575L2.70744 56.4394C2.48451 56.0454 2.62912 55.5241 3.02297 55.3011L7.09164 52.9986C7.21756 52.9272 7.35664 52.8934 7.49475 52.8934C7.78851 52.8934 8.07821 53.046 8.22964 53.3141H8.22981L20.1916 74.4495C20.4147 74.8433 20.2702 75.3646 19.8762 75.5877ZM75.7846 54.4748L49.4685 70.679C47.3851 71.9616 45.0985 72.2823 42.6722 71.6321L23.5842 66.5175C23.2512 66.4282 22.8962 66.4748 22.5979 66.6475L19.7077 68.3162L12.5463 55.6626L23.3442 49.4068C25.7582 48.008 28.3705 46.8354 31.1119 47.7251C31.9933 48.0109 33.0095 48.3783 34.186 48.8035C37.5583 50.0227 41.7493 51.5379 46.0981 52.333C47.6064 52.8604 48.4498 54.3174 48.0647 55.7537C47.5649 57.6193 45.9876 57.8489 44.7326 57.7041C42.4715 57.2494 36.3111 55.502 35.2636 55.2214C34.5701 55.0357 33.8575 55.4473 33.6716 56.1406C33.4857 56.8339 33.8974 57.5467 34.5907 57.7326C35.6199 58.0083 41.8913 59.7871 44.2572 60.2606C44.2641 60.2621 44.2713 60.2635 44.2784 60.2648C44.873 60.3834 45.4836 60.4942 46.1153 60.5953C48.815 61.0269 51.2108 60.6063 53.4391 59.3089L67.9402 50.8629C72.1077 48.4358 75.3144 48.1869 76.5182 50.1969C77.3477 51.5814 76.9774 53.7404 75.7846 54.4748ZM8.02671 56.6467C8.14272 57.4404 7.59337 58.1781 6.7995 58.2941C6.00562 58.4101 5.26812 57.8608 5.15195 57.0669C5.03594 56.273 5.58528 55.5354 6.37916 55.4193C7.17304 55.3033 7.9107 55.8528 8.02671 56.6467Z" fill="white"/>
</svg>