<svg width="49" height="49" viewBox="0 0 49 49" fill="none" xmlns="http://www.w3.org/2000/svg">
<g id="g1765_1_">
<g id="g1771_1_">
<path id="path1773_1_" d="M1 48.0523H48.0519V45.1833C48.0519 44.1311 47.1912 43.2704 46.139 43.2704H2.91292C1.86071 43.2704 1 44.1311 1 45.1833V48.0523Z" stroke="black" stroke-width="1.8" stroke-miterlimit="30.568" stroke-linecap="round" stroke-linejoin="round"/>
</g>
<g id="g1775_1_">
<path id="path1777_1_" d="M7.31064 1H41.7389C42.7911 1 43.6518 1.86071 43.6518 2.91292V5.78194H5.39844V2.91292C5.39844 1.86071 6.25914 1 7.31064 1Z" stroke="black" stroke-width="1.8" stroke-miterlimit="30.568" stroke-linecap="round" stroke-linejoin="round"/>
</g>
<g id="g1779_1_">
<path id="path1781_1_" d="M4.36133 21.7512V42.6964" stroke="black" stroke-width="1.8" stroke-miterlimit="30.568" stroke-linecap="round" stroke-linejoin="round"/>
</g>
<g id="g1783_1_">
<path id="path1785_1_" d="M44.6934 21.7508V42.6961" stroke="black" stroke-width="1.8" stroke-miterlimit="30.568" stroke-linecap="round" stroke-linejoin="round"/>
</g>
<g id="g1787_1_">
<path id="path1789_1_" d="M5.40088 5.78174L1.00195 14.5516V17.9127C1.00195 19.761 2.51393 21.2737 4.36301 21.2737C6.21138 21.2737 7.72407 19.761 7.72407 17.9127C7.72407 19.761 9.23676 21.2737 11.0851 21.2737C12.9335 21.2737 14.4462 19.761 14.4462 17.9127C14.4462 19.761 15.9589 21.2737 17.8072 21.2737C19.6556 21.2737 21.1683 19.761 21.1683 17.9127C21.1683 19.761 22.681 21.2737 24.5294 21.2737C26.3763 21.2737 27.8883 19.7639 27.8904 17.917C27.8926 19.7639 29.4045 21.2737 31.2515 21.2737C33.0998 21.2737 34.6125 19.761 34.6125 17.9127C34.6125 19.761 36.1252 21.2737 37.9736 21.2737C39.8212 21.2737 41.3332 19.7625 41.3346 17.9148C41.3361 19.7625 42.848 21.2737 44.6957 21.2737C46.5441 21.2737 48.0568 19.761 48.0568 17.9127V14.5516L43.6542 5.78174" stroke="black" stroke-width="1.8" stroke-miterlimit="30.568" stroke-linecap="round" stroke-linejoin="round"/>
</g>
<g id="g1791_1_">
<path id="path1793_1_" d="M41.3311 17.9126V14.5516L38.2275 5.90149M10.8262 5.90149L7.72266 14.5516V17.9126" stroke="black" stroke-width="1.8" stroke-miterlimit="30.568" stroke-linecap="round" stroke-linejoin="round"/>
</g>
<g id="g1795_1_">
<path id="path1797_1_" d="M34.6102 17.9128V14.5517L32.7482 5.90161M16.3073 5.90161L14.4453 14.5517V17.9128" stroke="black" stroke-width="1.8" stroke-miterlimit="30.568" stroke-linecap="round" stroke-linejoin="round"/>
</g>
<g id="g1799_1_">
<path id="path1801_1_" d="M27.8874 17.9128V14.5517L27.267 5.90161M21.7864 5.90161L21.166 14.5517V17.9128" stroke="black" stroke-width="1.8" stroke-miterlimit="30.568" stroke-linecap="round" stroke-linejoin="round"/>
</g>
<g id="g1803_1_">
<path id="path1805_1_" d="M1.47852 14.5516H47.5743" stroke="black" stroke-width="1.8" stroke-miterlimit="30.568" stroke-linecap="round" stroke-linejoin="round"/>
</g>
<g id="g1807_1_">
<path id="path1809_1_" d="M39.9112 20.7949V38.3928H9.14453V20.7949" stroke="black" stroke-width="1.8" stroke-miterlimit="30.568" stroke-linecap="round" stroke-linejoin="round"/>
</g>
<g id="g1811_1_">
<path id="path1813_1_" d="M30.2994 26.4837H28.6791L26.8838 33.1829H19.9343L18.7559 28.7861H24.4817" stroke="black" stroke-width="1.8" stroke-miterlimit="30.568" stroke-linecap="round" stroke-linejoin="round"/>
</g>
</g>
</svg>
