<svg width="59" height="53" viewBox="0 0 59 53" fill="none" xmlns="http://www.w3.org/2000/svg">
<g id="Group">
<path id="Vector" d="M2.9043 42.6374V38.5591C9.12258 38.5591 12.4376 36.2206 15.4321 35.0753C21.6458 32.6991 26.4245 34.5996 29.8262 40.6194C33.228 34.6007 38.0066 32.6991 44.2203 35.0753C47.2137 36.2206 50.5299 38.5591 56.7482 38.5591V42.6374" stroke="black" stroke-width="1.8" stroke-miterlimit="22.9256" stroke-linecap="round" stroke-linejoin="round"/>
<path id="Vector_2" d="M29.8262 40.6198V44.171" stroke="black" stroke-width="1.8" stroke-miterlimit="22.9256" stroke-linecap="round" stroke-linejoin="round"/>
<path id="Vector_3" d="M29.8264 45.3114C30.6785 43.8353 32.0178 43.2079 33.7209 43.2079H57.8891V48.3413H33.6536C33.1631 49.9908 31.6356 51.1932 29.8264 51.1932C28.0171 51.1932 26.4896 49.9908 25.9991 48.3413H1.76367V43.2079H25.9318C27.635 43.2079 28.9742 43.8353 29.8264 45.3114Z" stroke="black" stroke-width="1.8" stroke-miterlimit="22.9256" stroke-linecap="round" stroke-linejoin="round"/>
<path id="Vector_4" d="M8.68736 10.352L29.8268 19.2522L51.5012 10.1261L29.8268 1L8.15234 10.1261V20.7876M29.8268 10.1261H8.72272" stroke="black" stroke-width="1.8" stroke-miterlimit="22.9256" stroke-linecap="round" stroke-linejoin="round"/>
<path id="Vector_5" d="M16.0371 13.7303V23.9641C20.1997 26.3665 24.9202 27.6317 29.7262 27.6317C34.5323 27.6317 39.2527 26.3665 43.4154 23.9641V13.8159" stroke="black" stroke-width="1.8" stroke-miterlimit="22.9256" stroke-linecap="round" stroke-linejoin="round"/>
<path id="Vector_6" d="M5.58398 28.774V23.3554C5.58398 21.9431 6.73843 20.7887 8.15069 20.7887C9.56296 20.7887 10.7174 21.9443 10.7174 23.3554V28.774" stroke="black" stroke-width="1.8" stroke-miterlimit="22.9256" stroke-linecap="round" stroke-linejoin="round"/>
<path id="Vector_7" d="M5.95508 25.9216H10.347" stroke="black" stroke-width="1.8" stroke-miterlimit="22.9256" stroke-linecap="round" stroke-linejoin="round"/>
</g>
</svg>
