<svg width="55" height="47" viewBox="0 0 55 47" fill="none" xmlns="http://www.w3.org/2000/svg">
<g id="Group">
<path id="Vector" d="M32.4631 0H5.08033C2.74661 0 0.847656 1.90418 0.847656 4.24417V39.6921C0.847656 40.269 1.31586 40.7372 1.89276 40.7372H3.06851V45.4318C3.06851 46.0087 3.53671 46.4769 4.11361 46.4769H10.749C11.3259 46.4769 11.7941 46.0087 11.7941 45.4318V40.7372H25.7473V45.4318C25.7473 46.0087 26.2155 46.4769 26.7924 46.4769H33.4278C34.0047 46.4769 34.4729 46.0087 34.4729 45.4318V40.7372H35.6486C36.2255 40.7372 36.6937 40.269 36.6937 39.6921V4.24417C36.6948 1.90418 34.7969 0 32.4631 0ZM5.08033 2.09021H32.4631C33.6441 2.09021 34.6056 3.05589 34.6056 4.24417V7.59164C33.8343 7.06178 32.9021 6.75033 31.8988 6.75033H5.64469C4.64139 6.75033 3.70915 7.06073 2.93787 7.59164V4.24417C2.93787 3.05589 3.89832 2.09021 5.08033 2.09021ZM34.6046 23.3571H19.8163V8.84054H31.8977C33.3901 8.84054 34.6046 10.0612 34.6046 11.561V23.3571ZM2.93787 11.561C2.93787 10.0612 4.15228 8.84054 5.64469 8.84054H17.7261V23.3571H2.93787V11.561ZM2.93787 30.2652H6.80685V32.5801H2.93787V30.2652ZM9.70492 44.3867H5.15872V40.7372H9.70388V44.3867H9.70492ZM32.3837 44.3867H27.8385V40.7372H32.3837V44.3867ZM2.93787 38.6469V34.6703H7.85195C8.42885 34.6703 8.89706 34.2021 8.89706 33.6252V29.2201C8.89706 28.6432 8.42885 28.175 7.85195 28.175H2.93787V25.4473H34.6046V28.175H29.6905C29.1136 28.175 28.6454 28.6432 28.6454 29.2201V34.6829C28.6454 35.2598 29.1136 35.728 29.6905 35.728H34.6046V38.6469H2.93787ZM34.6046 33.6378H30.7356V30.2652H34.6046V33.6378Z" fill="black"/>
<path id="Vector_2" d="M24.9133 28.175H12.6291C12.0522 28.175 11.584 28.6433 11.584 29.2202V34.6829C11.584 35.2598 12.0522 35.728 12.6291 35.728H24.9122C25.4891 35.728 25.9573 35.2598 25.9573 34.6829V29.2202C25.9584 28.6433 25.4902 28.175 24.9133 28.175ZM23.8682 33.6378H13.6752V30.2653H23.8682V33.6378Z" fill="black"/>
<path id="Vector_3" d="M54.3565 8.48575C54.3565 4.31369 50.9725 0.919189 46.814 0.919189C42.6555 0.919189 39.2715 4.31369 39.2715 8.48575C39.2715 12.3025 42.1027 15.4681 45.7689 15.9802V45.4313C45.7689 46.0082 46.2371 46.4764 46.814 46.4764C47.3909 46.4764 47.8591 46.0082 47.8591 45.4313V15.9802C51.5253 15.4681 54.3565 12.3025 54.3565 8.48575ZM46.814 13.9621C43.8072 13.9621 41.3617 11.5051 41.3617 8.48575C41.3617 5.46644 43.8072 3.0094 46.814 3.0094C49.8208 3.0094 52.2663 5.4654 52.2663 8.48575C52.2663 11.5061 49.8208 13.9621 46.814 13.9621Z" fill="black"/>
</g>
</svg>
