<svg width="50" height="56" viewBox="0 0 50 56" fill="none" xmlns="http://www.w3.org/2000/svg">
<g id="Group 8796">
<path id="path221_1_" d="M10.7409 44.7745H5.21484V24.0381H10.7409V44.7745Z" stroke="black" stroke-width="1.8" stroke-miterlimit="13.3333" stroke-linecap="round" stroke-linejoin="round"/>
<path id="path223_1_" d="M44.36 44.7745H38.834V24.0381H44.36V44.7745Z" stroke="black" stroke-width="1.8" stroke-miterlimit="13.3333" stroke-linecap="round" stroke-linejoin="round"/>
<path id="path225_1_" d="M27.5514 44.7745H22.0254V24.0381H27.5514V44.7745Z" stroke="black" stroke-width="1.8" stroke-miterlimit="13.3333" stroke-linecap="round" stroke-linejoin="round"/>
<path id="path227_1_" d="M12.9381 49.6666H3.01758V44.7745H12.9381V49.6666Z" stroke="black" stroke-width="1.8" stroke-miterlimit="13.3333" stroke-linecap="round" stroke-linejoin="round"/>
<path id="path229_1_" d="M12.9381 24.0381H3.01758V19.1459H12.9381V24.0381Z" stroke="black" stroke-width="1.8" stroke-miterlimit="13.3333" stroke-linecap="round" stroke-linejoin="round"/>
<path id="path231_1_" d="M46.5572 49.6666H36.6367V44.7745H46.5572V49.6666Z" stroke="black" stroke-width="1.8" stroke-miterlimit="13.3333" stroke-linecap="round" stroke-linejoin="round"/>
<path id="path233_1_" d="M46.5572 24.0381H36.6367V19.1459H46.5572V24.0381Z" stroke="black" stroke-width="1.8" stroke-miterlimit="13.3333" stroke-linecap="round" stroke-linejoin="round"/>
<path id="path235_1_" d="M29.7467 49.6666H19.8262V44.7745H29.7467V49.6666Z" stroke="black" stroke-width="1.8" stroke-miterlimit="13.3333" stroke-linecap="round" stroke-linejoin="round"/>
<path id="path237_1_" d="M29.7467 24.0381H19.8262V19.1459H29.7467V24.0381Z" stroke="black" stroke-width="1.8" stroke-miterlimit="13.3333" stroke-linecap="round" stroke-linejoin="round"/>
<g id="g241_1_">
<path id="path247_1_" d="M48.316 55.052H1.25781V49.6666H48.316V55.052Z" stroke="black" stroke-width="1.8" stroke-miterlimit="13.3333" stroke-linecap="round" stroke-linejoin="round"/>
</g>
<path id="path249_1_" d="M48.316 19.1461H1.25781V13.7606H48.316V19.1461Z" stroke="black" stroke-width="1.8" stroke-miterlimit="13.3333" stroke-linecap="round" stroke-linejoin="round"/>
<path id="path261_1_" d="M48.316 13.7604H1.25781L24.7869 0.999989L48.316 13.7604Z" stroke="black" stroke-width="1.8" stroke-miterlimit="13.3333" stroke-linecap="round" stroke-linejoin="round"/>
<path id="path265_1_" d="M24.7891 6.69888V8.71814" stroke="black" stroke-width="1.8" stroke-miterlimit="13.3333" stroke-linecap="round" stroke-linejoin="round"/>
</g>
</svg>
