<svg width="37" height="53" viewBox="0 0 37 53" fill="none" xmlns="http://www.w3.org/2000/svg">
<g id="Group 8797">
<path id="path111_1_" d="M7.69742 9.30107H28.4502C30.733 9.30107 32.6007 11.1688 32.6007 13.4516V36.2796C32.6007 38.5624 30.733 40.4302 28.4502 40.4302H7.69742C5.41462 40.4302 3.54688 38.5624 3.54688 36.2796V13.4516C3.54688 11.1688 5.41462 9.30107 7.69742 9.30107Z" stroke="black" stroke-width="1.8" stroke-miterlimit="30.568" stroke-linecap="round" stroke-linejoin="round"/>
<path id="path115_1_" d="M33.6389 4.11292L31.7047 1H4.44392L2.50977 4.11292" stroke="black" stroke-width="1.8" stroke-miterlimit="30.568" stroke-linecap="round" stroke-linejoin="round"/>
<path id="path119_1_" d="M25.3375 8.78223L24.2998 5.1505H11.8482L10.8105 8.78223" stroke="black" stroke-width="1.8" stroke-miterlimit="30.568" stroke-linecap="round" stroke-linejoin="round"/>
<path id="path123_1_" d="M18.0723 4.6319V1.51899" stroke="black" stroke-width="1.8" stroke-miterlimit="30.568" stroke-linecap="round" stroke-linejoin="round"/>
<path id="path127_1_" d="M7.69764 40.4301L0.988281 52.0516" stroke="black" stroke-width="1.8" stroke-miterlimit="30.568" stroke-linecap="round" stroke-linejoin="round"/>
<path id="path131_1_" d="M28.4492 40.4301L35.1586 52.0516" stroke="black" stroke-width="1.8" stroke-miterlimit="30.568" stroke-linecap="round" stroke-linejoin="round"/>
<path id="path135_1_" d="M5.67773 44.5808H30.469" stroke="black" stroke-width="1.8" stroke-miterlimit="30.568" stroke-linecap="round" stroke-linejoin="round"/>
<path id="path139_1_" d="M3.39648 48.7312H32.7533" stroke="black" stroke-width="1.8" stroke-miterlimit="30.568" stroke-linecap="round" stroke-linejoin="round"/>
<path id="path143_1_" d="M13.9219 13.4519H22.223" stroke="black" stroke-width="1.8" stroke-miterlimit="30.568" stroke-linecap="round" stroke-linejoin="round"/>
<path id="path147_1_" d="M4.06445 17.6025H32.0806" stroke="black" stroke-width="1.8" stroke-miterlimit="30.568" stroke-linecap="round" stroke-linejoin="round"/>
<path id="path151_1_" d="M4.06445 27.9785H32.0806" stroke="black" stroke-width="1.8" stroke-miterlimit="30.568" stroke-linecap="round" stroke-linejoin="round"/>
<path id="path155_1_" d="M9.77059 32.129C10.912 32.129 11.8459 33.0629 11.8459 34.2043C11.8459 35.3457 10.912 36.2795 9.77059 36.2795C8.62919 36.2795 7.69531 35.3457 7.69531 34.2043C7.69531 33.0629 8.62919 32.129 9.77059 32.129Z" stroke="black" stroke-width="1.8" stroke-miterlimit="30.568" stroke-linecap="round" stroke-linejoin="round"/>
<path id="path159_1_" d="M26.3761 32.129C25.2347 32.129 24.3008 33.0629 24.3008 34.2043C24.3008 35.3457 25.2347 36.2795 26.3761 36.2795C27.5175 36.2795 28.4513 35.3457 28.4513 34.2043C28.4513 33.0629 27.5175 32.129 26.3761 32.129Z" stroke="black" stroke-width="1.8" stroke-miterlimit="30.568" stroke-linecap="round" stroke-linejoin="round"/>
<path id="path163_1_" d="M12.0723 34.2045H24.0746" stroke="black" stroke-width="1.8" stroke-miterlimit="30.568" stroke-linecap="round" stroke-linejoin="round"/>
</g>
</svg>
