<svg width="51" height="51" viewBox="0 0 51 51" fill="none" xmlns="http://www.w3.org/2000/svg">
<g id="XMLID_1_">
<path id="Vector" d="M31.0641 45.3474H3.4707V3.94445C3.4707 2.31813 4.78884 1 6.41516 1H28.1197C29.746 1 31.0641 2.31813 31.0641 3.94445V45.3474Z" stroke="black" stroke-width="1.8" stroke-miterlimit="10" stroke-linecap="round" stroke-linejoin="round"/>
<path id="Vector_2" d="M33.0361 45.3473H1.5V49.2889H33.0361V45.3473Z" stroke="black" stroke-width="1.8" stroke-miterlimit="10" stroke-linecap="round" stroke-linejoin="round"/>
<path id="Vector_3" d="M27.1262 4.94177H7.41602V13.8114H27.1262V4.94177Z" stroke="black" stroke-width="1.8" stroke-miterlimit="10" stroke-linecap="round" stroke-linejoin="round"/>
<path id="Vector_4" d="M26.1387 22.6807H8.40039V40.42H26.1387V22.6807Z" stroke="black" stroke-width="1.8" stroke-miterlimit="10" stroke-linecap="round" stroke-linejoin="round"/>
<path id="Vector_5" d="M36.9789 26.6223H31.0664V18.738H31.09C34.3426 18.738 36.9789 21.3743 36.9789 24.6269V26.6223Z" stroke="black" stroke-width="1.8" stroke-miterlimit="10" stroke-linecap="round" stroke-linejoin="round"/>
<path id="Vector_6" d="M35.0059 26.623V34.0145C35.0059 37.0081 37.4331 39.4343 40.4256 39.4343C43.4191 39.4343 45.8454 37.0071 45.8454 34.0145V21.6959" stroke="black" stroke-width="1.8" stroke-miterlimit="10" stroke-linecap="round" stroke-linejoin="round"/>
<path id="XMLID_4_" d="M20.5525 33.1928C20.5525 35.0066 19.0812 36.4778 17.2674 36.4778C15.4527 36.4778 13.9824 35.0076 13.9824 33.1928C13.9824 31.379 17.2674 26.6227 17.2674 26.6227C17.2674 26.6227 20.5525 31.379 20.5525 33.1928Z" stroke="black" stroke-width="1.8" stroke-miterlimit="10" stroke-linecap="round" stroke-linejoin="round"/>
<path id="Vector_7" d="M3.4707 17.7527H31.0641" stroke="black" stroke-width="1.8" stroke-miterlimit="10" stroke-linecap="round" stroke-linejoin="round"/>
<path id="Vector_8" d="M49.7886 11.8405H41.9043V21.6955H49.7886V11.8405Z" stroke="black" stroke-width="1.8" stroke-miterlimit="10" stroke-linecap="round" stroke-linejoin="round"/>
<path id="XMLID_3_" d="M47.8166 11.8404H43.875V9.86956C43.875 8.7811 44.7574 7.89874 45.8458 7.89874C46.9343 7.89874 47.8166 8.7811 47.8166 9.86956V11.8404Z" stroke="black" stroke-width="1.8" stroke-miterlimit="10" stroke-linecap="round" stroke-linejoin="round"/>
<path id="XMLID_2_" d="M41.9043 1L43.0016 1.54865C44.7447 2.42021 45.8459 4.2016 45.8459 6.15083V7.89787" stroke="black" stroke-width="1.8" stroke-miterlimit="10" stroke-linecap="round" stroke-linejoin="round"/>
</g>
</svg>
